<svg width="84" height="90" viewBox="0 0 84 90" fill="none" xmlns="http://www.w3.org/2000/svg">
<path d="M3 64V2C3 1.44772 3.44772 1 4 1H16C16.5523 1 17 1.44772 17 2V64C17 64.5523 16.5523 65 16 65H4C3.44772 65 3 64.5523 3 64Z" stroke="#FFAD00" stroke-width="2" stroke-linecap="round"/>
<path d="M17 64V2C17 1.44772 17.4477 1 18 1H30C30.5523 1 31 1.44772 31 2V64C31 64.5523 30.5523 65 30 65H18C17.4477 65 17 64.5523 17 64Z" stroke="#FFAD00" stroke-width="2" stroke-linecap="round"/>
<path d="M31 64V2C31 1.44772 31.4477 1 32 1H44C44.5523 1 45 1.44772 45 2V64C45 64.5523 44.5523 65 44 65H32C31.4477 65 31 64.5523 31 64Z" stroke="#FFAD00" stroke-width="2" stroke-linecap="round"/>
<path d="M45 64V2C45 1.44772 45.4477 1 46 1H58C58.5523 1 59 1.44772 59 2V64C59 64.5523 58.5523 65 58 65H46C45.4477 65 45 64.5523 45 64Z" stroke="#FFAD00" stroke-width="2" stroke-linecap="round"/>
<path d="M83 7C83.5523 7 84 7.44772 84 8C84 8.55228 83.5523 9 83 9V7ZM65.2929 8.70711C64.9024 8.31658 64.9024 7.68342 65.2929 7.29289L71.6569 0.928932C72.0474 0.538408 72.6805 0.538408 73.0711 0.928932C73.4616 1.31946 73.4616 1.95262 73.0711 2.34315L67.4142 8L73.0711 13.6569C73.4616 14.0474 73.4616 14.6805 73.0711 15.0711C72.6805 15.4616 72.0474 15.4616 71.6569 15.0711L65.2929 8.70711ZM83 9L66 9V7L83 7V9Z" fill="#154889"/>
<path d="M83 57C83.5523 57 84 57.4477 84 58C84 58.5523 83.5523 59 83 59V57ZM65.2929 58.7071C64.9024 58.3166 64.9024 57.6834 65.2929 57.2929L71.6569 50.9289C72.0474 50.5384 72.6805 50.5384 73.0711 50.9289C73.4616 51.3195 73.4616 51.9526 73.0711 52.3431L67.4142 58L73.0711 63.6569C73.4616 64.0474 73.4616 64.6805 73.0711 65.0711C72.6805 65.4616 72.0474 65.4616 71.6569 65.0711L65.2929 58.7071ZM83 59L66 59V57L83 57V59Z" fill="#154889"/>
<path d="M26 89C26 89.5523 26.4477 90 27 90C27.5523 90 28 89.5523 28 89H26ZM27.7071 71.2929C27.3166 70.9024 26.6834 70.9024 26.2929 71.2929L19.9289 77.6569C19.5384 78.0474 19.5384 78.6805 19.9289 79.0711C20.3195 79.4616 20.9526 79.4616 21.3431 79.0711L27 73.4142L32.6569 79.0711C33.0474 79.4616 33.6805 79.4616 34.0711 79.0711C34.4616 78.6805 34.4616 78.0474 34.0711 77.6569L27.7071 71.2929ZM28 89V72H26V89H28Z" fill="#FFAD00"/>
<path d="M9 89C9 89.5523 9.44772 90 10 90C10.5523 90 11 89.5523 11 89H9ZM10.7071 71.2929C10.3166 70.9024 9.68342 70.9024 9.29289 71.2929L2.92893 77.6569C2.53841 78.0474 2.53841 78.6805 2.92893 79.0711C3.31946 79.4616 3.95262 79.4616 4.34315 79.0711L10 73.4142L15.6569 79.0711C16.0474 79.4616 16.6805 79.4616 17.0711 79.0711C17.4616 78.6805 17.4616 78.0474 17.0711 77.6569L10.7071 71.2929ZM11 89V72H9V89H11Z" fill="#FFAD00"/>
</svg>
