<svg width="67" height="92" viewBox="0 0 67 92" fill="none" xmlns="http://www.w3.org/2000/svg">
<path d="M19.4913 15.4133C17.6113 14.5778 14.9793 12.28 19.4913 9.77334C24.0033 7.26667 20.1179 2.88 17.6113 1" stroke="#154889" stroke-width="2" stroke-linecap="round"/>
<path d="M31.3825 15.4133C29.5025 14.5778 26.8705 12.28 31.3825 9.77334C35.8945 7.26667 32.0092 2.88 29.5025 1" stroke="#154889" stroke-width="2" stroke-linecap="round"/>
<path d="M43.916 15.4133C42.036 14.5778 39.404 12.28 43.916 9.77334C48.428 7.26667 44.5426 2.88 42.0359 1" stroke="#154889" stroke-width="2" stroke-linecap="round"/>
<path d="M2.99997 89V27C2.99997 26.4477 3.44769 26 3.99997 26H16C16.5523 26 17 26.4477 17 27V89C17 89.5523 16.5523 90 16 90H3.99997C3.44768 90 2.99997 89.5523 2.99997 89Z" stroke="#FFAD00" stroke-width="2" stroke-linecap="round"/>
<path d="M17 89V27C17 26.4477 17.4477 26 18 26H30C30.5523 26 31 26.4477 31 27V89C31 89.5523 30.5523 90 30 90H18C17.4477 90 17 89.5523 17 89Z" stroke="#FFAD00" stroke-width="2" stroke-linecap="round"/>
<path d="M31 89V27C31 26.4477 31.4477 26 32 26H44C44.5523 26 45 26.4477 45 27V89C45 89.5523 44.5523 90 44 90H32C31.4477 90 31 89.5523 31 89Z" stroke="#FFAD00" stroke-width="2" stroke-linecap="round"/>
<path d="M45 89V27C45 26.4477 45.4477 26 46 26H58C58.5523 26 59 26.4477 59 27V89C59 89.5523 58.5523 90 58 90H46C45.4477 90 45 89.5523 45 89Z" stroke="#FFAD00" stroke-width="2" stroke-linecap="round"/>
</svg>
