<svg width="70" height="76" viewBox="0 0 70 76" fill="none" xmlns="http://www.w3.org/2000/svg">
<path d="M1 73V2C1 1.44772 1.44772 1 2 1H15C15.5523 1 16 1.44772 16 2V73C16 73.5523 15.5523 74 15 74H2C1.44772 74 1 73.5523 1 73Z" stroke="#FFAD00" stroke-width="2" stroke-linecap="round"/>
<path d="M27 74V22C27 21.4477 27.4477 21 28 21H41C41.5523 21 42 21.4477 42 22V74C42 74.5523 41.5523 75 41 75H28C27.4477 75 27 74.5523 27 74Z" stroke="#154889" stroke-width="2" stroke-linecap="round"/>
<path d="M53.5 73.5V38.5C53.5 37.9477 53.9477 37.5 54.5 37.5H67.5C68.0523 37.5 68.5 37.9477 68.5 38.5V73.5C68.5 74.0523 68.0523 74.5 67.5 74.5H54.5C53.9477 74.5 53.5 74.0523 53.5 73.5Z" stroke="#FFAD00" stroke-width="2" stroke-linecap="round"/>
</svg>
