<svg width="72" height="72" viewBox="0 0 72 72" fill="none" xmlns="http://www.w3.org/2000/svg">
<g clip-path="url(#clip0_10_148)">
<path d="M50.3888 28.7842C48.9809 28.7858 47.5765 28.9252 46.1957 29.2005C39.8563 14.6657 28.2585 2.15013 26.9292 0.738077C25.9679 -0.212171 24.421 -0.212171 23.4597 0.738077C21.0577 3.28028 1.65392e-05 26.1675 1.65392e-05 46.7802C-0.0104062 55.8926 4.90606 64.2988 12.8535 68.7571C20.801 73.2153 30.5377 73.0289 38.3087 68.2697C45.9864 73.4602 56.12 73.1732 63.4917 67.5563C70.8633 61.9394 73.8291 52.2453 70.862 43.4654C67.8949 34.6856 59.6564 28.7778 50.3888 28.7842ZM25.1943 69.575C12.6109 69.5612 2.41336 59.3637 2.39938 46.7801C2.39938 27.0949 22.8692 4.85661 25.1859 2.38997C26.4733 3.75286 37.6331 15.803 43.8394 29.8098C36.3886 32.1702 30.7988 38.3781 29.23 46.0347C27.6611 53.6913 30.3591 61.5974 36.2811 66.6979C32.8921 68.5886 29.0751 69.5792 25.1943 69.575ZM50.3888 69.575C39.7873 69.575 31.1931 60.9808 31.1931 50.3793C31.1931 39.7779 39.7873 31.1837 50.3888 31.1837C60.9903 31.1837 69.5844 39.7779 69.5844 50.3793C69.5719 60.9756 60.985 69.5625 50.3888 69.575Z" fill="#FFAD00"/>
<path d="M50.3888 33.583C41.1166 33.593 33.6025 41.1071 33.5925 50.3793C33.5925 51.0419 34.1297 51.579 34.7922 51.579C35.4548 51.579 35.9919 51.0419 35.9919 50.3793C35.9919 42.4281 42.4375 35.9825 50.3887 35.9825C58.3398 35.9825 64.7855 42.4281 64.7855 50.3793C64.7855 51.0419 65.3226 51.579 65.9852 51.579C66.6477 51.579 67.1849 51.0419 67.1849 50.3793C67.1752 41.1071 59.6609 33.593 50.3888 33.583Z" fill="#FFAD00"/>
<path d="M51.5885 45.7509V39.5819C51.5885 38.9193 51.0514 38.3822 50.3888 38.3822C49.7262 38.3822 49.1891 38.9193 49.1891 39.5819V45.7509C46.8493 46.355 45.3237 48.6048 45.6282 51.002C45.9327 53.3994 47.9723 55.1963 50.3889 55.1963C52.8055 55.1963 54.8451 53.3993 55.1496 51.002C55.4539 48.6047 53.9284 46.3549 51.5885 45.7509ZM50.3888 52.7789C49.0636 52.7789 47.9893 51.7046 47.9893 50.3794C47.9893 49.0542 49.0636 47.9799 50.3888 47.9799C51.714 47.9799 52.7883 49.0542 52.7883 50.3794C52.7883 51.7045 51.7139 52.7789 50.3888 52.7789Z" fill="#154889"/>
</g>
<defs>
<clipPath id="clip0_10_148">
<rect width="72" height="72" fill="white"/>
</clipPath>
</defs>
</svg>
