<svg width="66" height="66" viewBox="0 0 66 66" fill="none" xmlns="http://www.w3.org/2000/svg">
<g clip-path="url(#clip0_10_47)">
<g clip-path="url(#clip1_10_47)">
<path d="M63.6497 44.6665H52.8315L62.1955 39.2594C62.5777 39.0407 62.913 38.7488 63.1822 38.4003C63.4513 38.0518 63.649 37.6535 63.7638 37.2284C63.879 36.8034 63.909 36.3598 63.8523 35.9232C63.7955 35.4865 63.653 35.0653 63.433 34.6839L55.6142 21.145C55.3937 20.7639 55.1002 20.4299 54.7505 20.1623C54.4008 19.8947 54.0017 19.6987 53.5762 19.5855C53.1508 19.4701 52.7067 19.4408 52.2699 19.4992C51.8331 19.5575 51.4123 19.7025 51.0321 19.9254L41.6659 25.3341L47.0716 15.9724C47.2937 15.5912 47.4383 15.1699 47.4972 14.7326C47.556 14.2953 47.5279 13.8507 47.4144 13.4243C47.3009 12.998 47.1043 12.5982 46.8359 12.248C46.5675 11.8978 46.2326 11.6041 45.8504 11.3837L32.3136 3.56487C31.9323 3.34587 31.5115 3.20414 31.0754 3.14776C30.6392 3.09138 30.1963 3.12147 29.7718 3.23631C29.3473 3.35114 28.9495 3.54847 28.6013 3.81702C28.2531 4.08558 27.9611 4.4201 27.7422 4.80149L22.3335 14.1706V3.35026C22.3314 1.50083 20.8327 0.00209375 18.9832 0H3.35026C1.50083 0.00209375 0.00209375 1.50083 0 3.35026V63.6497C0.00209375 65.4992 1.50083 66.9979 3.35026 67H63.6497C65.4992 66.9979 66.9979 65.4992 67 63.6497V48.0168C66.9979 46.1673 65.4992 44.6686 63.6497 44.6665ZM3.35026 44.6665C2.96894 44.6705 2.59115 44.7402 2.23325 44.8725V33.5H11.1732L4.72625 44.6665H3.35026ZM48.3648 44.6665H33.0946L27.9789 35.8166L39.582 29.1166L48.511 44.5826L48.3648 44.6665ZM37.7964 27.5684L24.5766 35.2027L15.7211 30.0894L22.4184 18.4895L37.8834 27.418L37.7964 27.5684ZM20.1003 18.0382L13.2383 29.9239C13.2347 29.9295 13.2291 29.932 13.2254 29.9383L13.2194 29.9561L12.4628 31.2668H2.23325V17.8669H20.1003V18.0382ZM14.6046 32.0238L22.3432 36.4924L8.18735 44.6665H7.30509L14.6046 32.0238ZM25.1204 37.4677L25.1348 37.4595L26.0451 36.9335L30.5152 44.6665H12.6541L25.1204 37.4677ZM20.1003 46.8997H33.5V64.7668H20.1003V46.8997ZM35.7332 46.8997H49.1331V64.7668H35.7332V46.8997ZM52.1531 21.8572C52.2793 21.7828 52.419 21.7343 52.5642 21.7145C52.7093 21.6947 52.857 21.7041 52.9984 21.742C53.2867 21.8196 53.5328 22.0079 53.683 22.266L61.4974 35.7979C61.571 35.9251 61.6187 36.0657 61.6377 36.2115C61.6567 36.3573 61.6466 36.5054 61.6079 36.6473C61.5693 36.7891 61.5029 36.9219 61.4125 37.0379C61.3222 37.154 61.2098 37.2509 61.0818 37.3232L50.4449 43.4648L41.5163 27.9995L52.1531 21.8572ZM29.6785 5.91458C29.7511 5.78738 29.848 5.67576 29.9638 5.58611C30.0796 5.49647 30.2119 5.43057 30.3532 5.39219C30.4945 5.35368 30.642 5.34343 30.7873 5.36202C30.9325 5.38062 31.0727 5.42769 31.1998 5.50054L44.7293 13.3148C44.9895 13.4645 45.1797 13.7114 45.258 14.0013C45.3347 14.2892 45.2921 14.5954 45.1398 14.8514L39.0007 25.4837L23.5353 16.5552L29.6785 5.91458ZM3.35026 2.23325H18.9832C19.2794 2.2337 19.5632 2.35153 19.7726 2.56091C19.982 2.77029 20.0998 3.05415 20.1003 3.35026V15.6331H2.23325V3.35026C2.2337 3.05415 2.35153 2.77029 2.56091 2.56091C2.77029 2.35153 3.05415 2.2337 3.35026 2.23325ZM2.23325 63.6497V48.0168C2.2337 47.7206 2.35153 47.4368 2.56091 47.2274C2.77029 47.018 3.05415 46.9002 3.35026 46.8997H17.8669V64.7668H3.35026C3.05415 64.7663 2.77029 64.6485 2.56091 64.4391C2.35153 64.2297 2.2337 63.9459 2.23325 63.6497ZM64.7668 63.6497C64.7663 63.9459 64.6485 64.2297 64.4391 64.4391C64.2297 64.6485 63.9459 64.7663 63.6497 64.7668H51.3669V46.8997H63.6497C63.9459 46.9002 64.2297 47.018 64.4391 47.2274C64.6485 47.4368 64.7663 47.7206 64.7668 48.0168V63.6497Z" fill="#FFAD00"/>
<path d="M11.1665 51.3669C8.69955 51.3669 6.69989 53.3666 6.69989 55.8336C6.69989 58.3005 8.69955 60.3002 11.1665 60.3002C13.6335 60.3002 15.6331 58.3005 15.6331 55.8336C15.6305 53.3677 13.6323 51.3696 11.1665 51.3669ZM11.1665 58.0669C9.93303 58.0669 8.93327 57.067 8.93327 55.8336C8.93327 54.6001 9.93303 53.6003 11.1665 53.6003C12.4 53.6003 13.3998 54.6001 13.3998 55.8336C13.3988 57.0665 12.3995 58.0655 11.1665 58.0669Z" fill="#154889"/>
</g>
</g>
<defs>
<clipPath id="clip0_10_47">
<rect width="66" height="66" fill="white"/>
</clipPath>
<clipPath id="clip1_10_47">
<rect width="67" height="67" fill="white"/>
</clipPath>
</defs>
</svg>
