<svg width="79" height="67" viewBox="0 0 79 67" fill="none" xmlns="http://www.w3.org/2000/svg">
<path d="M75.839 13.5991L75.839 13.599C75.9795 12.8259 76.3202 10.9519 76.6903 8.91645C77.1995 6.11531 77.7644 3.00837 77.9396 2.04395C78.0049 1.68442 78.0092 1.44885 77.9901 1.30176C77.981 1.2319 77.9678 1.19146 77.9594 1.17126C77.9518 1.15279 77.9467 1.14763 77.9466 1.14745C77.9462 1.14704 77.9402 1.13978 77.9193 1.12754C77.8968 1.11439 77.8553 1.0945 77.7853 1.07431C77.6386 1.03196 77.411 1.00054 77.0695 1.00054L44.8749 1.00027L23.5122 1.00008L16.5073 1.00002L14.5481 1.00001L14.0322 1L13.9 1L13.8666 1L13.8582 1H13.8561C13.8559 1 13.8558 1 13.8557 0.959761L13.8557 1C13.0342 1.00025 12.7515 1.13356 12.6255 1.24014C12.4968 1.34898 12.3226 1.60574 12.1778 2.40158L75.839 13.5991ZM75.839 13.5991C75.6794 14.478 75.4966 14.712 75.3907 14.7967C75.275 14.8891 75.0108 15 74.1613 15H74.1505H74.1384H74.1249H74.1102H74.0941H74.0768H74.0581H74.0382H74.0169H73.9944H73.9706H73.9455H73.9192H73.8916H73.8627H73.8326H73.8013H73.7687H73.7349H73.6998H73.6635H73.626H73.5873H73.5474H73.5062H73.4639H73.4204H73.3756H73.3297H73.2827H73.2344H73.185H73.1344H73.0827H73.0298H72.9757H72.9206H72.8642H72.8068H72.7482H72.6885H72.6277H72.5658H72.5027H72.4386H72.3734H72.307H72.2396H72.1712H72.1016H72.031H71.9593H71.8865H71.8127H71.7379H71.662H71.585H71.5071H71.4281H71.348H71.267H71.185H71.1019H71.0178H70.9328H70.8467H70.7597H70.6717H70.5827H70.4927H70.4018H70.3099H70.2171H70.1233H70.0286H69.9329H69.8363H69.7387H69.6403H69.5409H69.4406H69.3394H69.2373H69.1343H69.0304H68.9256H68.8199H68.7134H68.6059H68.4977H68.3885H68.2785H68.1676H68.0559H67.9434H67.83H67.7158H67.6008H67.4849H67.3683H67.2508H67.1325H67.0134H66.8935H66.7729H66.6514H66.5292H66.4062H66.2824H66.1579H66.0326H65.9066H65.7798H65.6522H65.524H65.395H65.2652H65.1348H65.0036H64.8717H64.7391H64.6059H64.4719H64.3372H64.2019H64.0658H63.9291H63.7917H63.6537H63.515H63.3756H63.2356H63.095H62.9537H62.8118H62.6692H62.5261H62.3823H62.2379H62.0928H61.9472H61.801H61.6542H61.5068H61.3589H61.2103H61.0612H60.9115H60.7613H60.6105H60.4592H60.3073H60.1548H60.0019H59.8484H59.6944H59.5398H59.3848H59.2292H59.0732H58.9166H58.7596H58.602H58.444H58.2855H58.1265H57.9671H57.8072H57.6468H57.486H57.3248H57.1631H57.0009H56.8384H56.6754H56.512H56.3481H56.1839H56.0193H55.8542H55.6888H55.523H55.3568H55.1902H55.0232H54.8559H54.6882H54.5202H54.3518H54.183H54.0139H53.8445H53.6748H53.5047H53.3343H53.1636H52.9925H52.8212H52.6495H52.4776H52.3054H52.1329H51.9601H51.787H51.6137H51.4401H51.2662H51.0921H50.9177H50.7431H50.5683H50.3932H50.2179H50.0424H49.8666H49.6907H49.5145H49.3381H49.1616H48.9848H48.8079H48.6308H48.4535H48.276H48.0984H47.9206H47.7426H47.5645H47.3863H47.2079H47.0293H46.8507H46.6719H46.493H46.314H46.1349H45.9557H45.7764H45.597H45.4175H45.2379H45.0582H44.8785H44.6987H44.5188H44.3389H44.1589H43.9789H43.7989H43.6188H43.4387H43.2585H43.0783H42.8982H42.718H42.5378H42.3576H42.1774H41.9972H41.817H41.6369H41.4568H41.2767H41.0967H40.9166H40.7367H40.5568H40.3769H40.1972H40.0174H39.8378H39.6582H39.4787H39.2993H39.12H38.9408H38.7618H38.5828H38.4039H38.2251H38.0465H37.868H37.6897H37.5114H37.3334H37.1554H36.9777H36.8001H36.6226H36.4454H36.2683H36.0914H35.9147H35.7381H35.5618H35.3857H35.2098H35.034H34.8586H34.6833H34.5083H34.3335H34.1589H33.9846H33.8105H33.6367H33.4632H33.2899H33.1169H32.9441H32.7717H32.5995H32.4276H32.2561H32.0848H31.9138H31.7431H31.5728H31.4028H31.2331H31.0637H30.8947H30.726H30.5577H30.3897H30.2221H30.0548H29.8879H29.7214H29.5553H29.3896H29.2242H29.0592H28.8947H28.7305H28.5668H28.4035H28.2405H28.0781H27.916H27.7544H27.5932H27.4325H27.2722H27.1124H26.9531H26.7942H26.6358H26.4779H26.3204H26.1635H26.007H25.851H25.6956H25.5406H25.3862H25.2323H25.0789H24.926H24.7737H24.6219H24.4707H24.32H24.1698H24.0203H23.8713H23.7228H23.575H23.4277H23.281H23.1349H22.9894H22.8445H22.7002H22.5566H22.4135H22.2711H22.1293H21.9881H21.8476H21.7077H21.5685H21.4299H21.292H21.1547H21.0182H20.8823H20.747H20.6125H20.4787H20.3455H20.2131H20.0813H19.9503H19.82H19.6904H19.5615H19.4334H19.306H19.1794H19.0535H18.9283H18.8039H18.6803H18.5574H18.4354H18.3141H18.1936H18.0738H17.9549H17.8368H17.7194H17.6029H17.4872H17.3724H17.2583H17.1451H17.0327H16.9212H16.8105H16.7006H16.5917H16.4835H16.3763H16.2699H16.1644H16.0598H15.9561H15.8532H15.7513H15.6503H15.5501H15.4509H15.3526H15.2553H15.1589H15.0634H14.9688H14.8752H14.7825H14.6908H14.6001H14.5103H14.4215H14.3337H14.2468H14.161H14.0761H13.9923H13.9094H13.8275H13.7467H13.6669H13.5881H13.5103H13.4336H13.3579H13.2832H13.2096H13.1371H13.0656H12.9951H12.9258H12.8575H12.7903H12.7242H12.6592H12.5953H12.5325H12.4707H12.4101H12.3507H12.2923H12.2351H12.179H12.124H12.0702H12.0175H11.966H11.9156H11.8664H11.8184H11.7715H11.7259H11.6814H11.6381H11.596H11.5551H11.5154H11.4769H11.4396H11.4036H11.3687H11.3352H11.3028H11.2717H11.2418H11.2132H11.1859H11.1598H11.1349H11.1114H11.0891H11.0681H11.0484H11.03H11.0129H10.9971H10.9826H10.9694H10.9575H10.947C10.5573 15 10.305 14.973 10.1433 14.9326C10.0812 14.9171 10.044 14.9025 10.0237 14.8929C10.018 14.8729 10.0105 14.8381 10.0054 14.7829C9.9905 14.6215 10.0035 14.3623 10.0772 13.9568L75.839 13.5991ZM11.4515 6.39716C10.9197 9.32281 10.2779 12.8535 10.0772 13.9567L11.4515 6.39716ZM11.4515 6.39716C11.7768 4.60755 12.0609 3.04436 12.1778 2.40168L11.4515 6.39716ZM10.0032 14.8813C10.0032 14.8812 10.0042 14.8819 10.006 14.8833C10.004 14.882 10.0031 14.8813 10.0032 14.8813ZM10.03 14.9113C10.0315 14.9139 10.0322 14.9153 10.0321 14.9154C10.032 14.9155 10.0313 14.9142 10.03 14.9113Z" stroke="#FFAD00" stroke-width="2"/>
<path d="M6.0547 39.9545L6.05472 39.9543L8.12701 28.3988C8.12702 28.3988 8.12703 28.3988 8.12703 28.3987C8.20864 27.9442 8.55253 27.5936 9.05097 27.3241C9.28847 27.1958 9.52426 27.1074 9.70288 27.0513C9.77627 27.0283 9.83767 27.0115 9.88256 27H9.89226H9.91011H9.92877H9.94824H9.96853H9.98962H10.0115H10.0342H10.0577H10.082H10.1071H10.1329H10.1596H10.187H10.2152H10.2442H10.2739H10.3044H10.3357H10.3678H10.4006H10.4341H10.4684H10.5035H10.5392H10.5758H10.613H10.651H10.6898H10.7292H10.7694H10.8103H10.8519H10.8943H10.9373H10.9811H11.0255H11.0707H11.1166H11.1631H11.2103H11.2583H11.3069H11.3562H11.4061H11.4568H11.5081H11.5601H11.6127H11.666H11.72H11.7746H11.8299H11.8858H11.9424H11.9996H12.0574H12.1159H12.175H12.2347H12.2951H12.3561H12.4177H12.4799H12.5427H12.6061H12.6702H12.7348H12.8H12.8659H12.9323H12.9993H13.0669H13.1351H13.2038H13.2731H13.343H13.4135H13.4845H13.5561H13.6283H13.701H13.7742H13.848H13.9224H13.9973H14.0727H14.1487H14.2252H14.3022H14.3797H14.4578H14.5364H14.6155H14.6951H14.7752H14.8559H14.937H15.0186H15.1008H15.1834H15.2665H15.3501H15.4342H15.5187H15.6037H15.6892H15.7752H15.8616H15.9485H16.0359H16.1237H16.2119H16.3007H16.3898H16.4794H16.5694H16.6599H16.7508H16.8422H16.9339H17.0261H17.1187H17.2117H17.3051H17.399H17.4932H17.5879H17.6829H17.7783H17.8742H17.9704H18.067H18.164H18.2614H18.3591H18.4572H18.5557H18.6545H18.7538H18.8533H18.9533H19.0535H19.1542H19.2552H19.3565H19.4581H19.5601H19.6625H19.7651H19.8681H19.9714H20.075H20.179H20.2832H20.3878H20.4927H20.5978H20.7033H20.8091H20.9151H21.0215H21.1281H21.235H21.3422H21.4497H21.5575H21.6655H21.7738H21.8823H21.9911H22.1002H22.2095H22.3191H22.4289H22.539H22.6493H22.7598H22.8706H22.9816H23.0928H23.2042H23.3159H23.4278H23.5399H23.6522H23.7647H23.8774H23.9904H24.1035H24.2168H24.3303H24.444H24.5579H24.6719H24.7861H24.9005H25.0151H25.1298H25.2447H25.3598H25.475H25.5904H25.7059H25.8216H25.9374H26.0534H26.1695H26.2857H26.402H26.5185H26.6351H26.7519H26.8687H26.9857H27.1027H27.2199H27.3372H27.4546H27.5721H27.6896H27.8073H27.9251H28.0429H28.1608H28.2788H28.3969H28.515H28.6332H28.7515H28.8698H28.9882H29.1067H29.2252H29.3437H29.4623H29.5809H29.6996H29.8183H29.937H30.0558H30.1746H30.2934H30.4122H30.531H30.6499H30.7688H30.8876H31.0065H31.1253H31.2442H31.363H31.4819H31.6007H31.7195H31.8383H31.957H32.0758H32.1945H32.3131H32.4317H32.5503H32.6688H32.7873H32.9058H33.0241H33.1425H33.2607H33.3789H33.497H33.6151H33.7331H33.851H33.9688H34.0865H34.2042H34.3217H34.4392H34.5565H34.6738H34.791H34.908H35.0249H35.1418H35.2585H35.375H35.4915H35.6078H35.724H35.8401H35.956H36.0718H36.1874H36.3029H36.4183H36.5334H36.6485H36.7633H36.878H36.9926H37.1069H37.2211H37.3351H37.449H37.5626H37.6761H37.7893H37.9024H38.0153H38.128H38.2404H38.3527H38.4647H38.5766H38.6882H38.7996H38.9108H39.0217H39.1324H39.2429H39.3532H39.4632H39.5729H39.6824H39.7917H39.9007H40.0095H40.118H40.2262H40.3341H40.4418H40.5493H40.6564H40.7632H40.8698H40.9761H41.0821H41.1878H41.2932H41.3983H41.5031H41.6076H41.7118H41.8157H41.9192H42.0225H42.1254H42.228H42.3302H42.4321H42.5337H42.635H42.7359H42.8364H42.9366H43.0365H43.136H43.2351H43.3339H43.4323H43.5303H43.6279H43.7252H43.8221H43.9187H44.0148H44.1105H44.2059H44.3008H44.3954H44.4895H44.5833H44.6766H44.7695H44.862H44.9541H45.0458H45.137H45.2278H45.3182H45.4081H45.4976H45.5867H45.6753H45.7635H45.8512H45.9384H46.0252H46.1115H46.1974H46.2828H46.3677H46.4522H46.5361H46.6196H46.7026H46.7851H46.8671H46.9487H47.0297H47.1102H47.1902H47.2697H47.3487H47.4272H47.5051H47.5826H47.6595H47.7358H47.8117H47.887H47.9618H48.036H48.1097H48.1828H48.2554H48.3274H48.3989H48.4698H48.5401H48.6099H48.6791H48.7477H48.8158H48.8832H48.9501H49.0164H49.0821H49.1472H49.2117H49.2756H49.3389H49.4016H49.4636H49.5251H49.5859H49.6461H49.7057H49.7647H49.823H49.8807H49.9378H49.9942H50.05H50.1051H50.1596H50.2134H50.2665H50.319H50.3709H50.422H50.4725H50.5224H50.5715H50.6199H50.6677H50.7148H50.7612H50.8069H50.8519H50.8962H50.9398H50.9827H51.0249H51.0663H51.1071H51.1471H51.1864H51.2249H51.2628H51.2999H51.3362H51.3719H51.4067H51.4409H51.4743H51.5069H51.5388H51.5699H51.6002H51.6298H51.6586H51.6866H51.7139H51.7403H51.766H51.7909H51.815H51.8383H51.8609H51.8826H51.9035H51.9236H51.9429H51.9614H51.979H51.9959H52.0119H52.0271H52.0414H52.055H52.0676H52.0795H52.0905C52.4777 27 52.7101 27.0443 52.841 27.0905C52.9026 27.1122 52.9332 27.1314 52.9454 27.1402C52.9516 27.1446 52.9544 27.1474 52.9553 27.1482L52.9567 27.15C52.9568 27.15 52.9636 27.1594 52.9721 27.1873C52.9812 27.2169 52.9918 27.2663 52.9969 27.3427C53.0076 27.5025 52.9916 27.729 52.9348 28.0459C52.6805 29.4661 51.1253 38.1393 50.863 39.6012C50.7648 40.1476 50.5539 40.4737 50.3203 40.6675C50.0854 40.8624 49.7352 41 49.221 41H49.2124H49.2029H49.1926H49.1814H49.1694H49.1565H49.1427H49.1281H49.1127H49.0965H49.0794H49.0614H49.0427H49.0231H49.0027H48.9815H48.9594H48.9366H48.913H48.8885H48.8633H48.8372H48.8104H48.7827H48.7543H48.7251H48.6951H48.6644H48.6329H48.6006H48.5675H48.5337H48.4991H48.4637H48.4276H48.3908H48.3532H48.3149H48.2758H48.236H48.1954H48.1542H48.1122H48.0695H48.026H47.9819H47.937H47.8914H47.8451H47.7982H47.7505H47.7021H47.653H47.6033H47.5528H47.5017H47.4499H47.3974H47.3443H47.2905H47.236H47.1809H47.1251H47.0686H47.0115H46.9537H46.8953H46.8363H46.7766H46.7163H46.6554H46.5938H46.5316H46.4688H46.4053H46.3413H46.2766H46.2114H46.1455H46.079H46.012H45.9443H45.876H45.8072H45.7378H45.6678H45.5972H45.526H45.4543H45.382H45.3092H45.2357H45.1618H45.0872H45.0122H44.9365H44.8604H44.7837H44.7064H44.6287H44.5504H44.4715H44.3922H44.3123H44.2319H44.151H44.0696H43.9877H43.9052H43.8223H43.7389H43.655H43.5706H43.4857H43.4003H43.3145H43.2282H43.1414H43.0541H42.9664H42.8782H42.7896H42.7005H42.6109H42.5209H42.4304H42.3396H42.2482H42.1565H42.0643H41.9716H41.8786H41.7851H41.6912H41.5969H41.5022H41.4071H41.3115H41.2156H41.1193H41.0226H40.9254H40.8279H40.7301H40.6318H40.5331H40.4341H40.3347H40.235H40.1349H40.0344H39.9335H39.8323H39.7308H39.6289H39.5267H39.4241H39.3212H39.2179H39.1143H39.0104H38.9062H38.8017H38.6968H38.5916H38.4861H38.3803H38.2742H38.1678H38.0611H37.9541H37.8469H37.7393H37.6315H37.5233H37.4149H37.3062H37.1973H37.0881H36.9786H36.8689H36.7589H36.6486H36.5381H36.4274H36.3164H36.2052H36.0937H35.982H35.8701H35.758H35.6456H35.533H35.4202H35.3072H35.194H35.0806H34.9669H34.8531H34.7391H34.6249H34.5105H34.3959H34.2811H34.1662H34.0511H33.9358H33.8203H33.7047H33.5889H33.4729H33.3568H33.2406H33.1242H33.0076H32.8909H32.7741H32.6572H32.5401H32.4229H32.3055H32.188H32.0705H31.9528H31.835H31.7171H31.599H31.4809H31.3627H31.2444H31.126H31.0075H30.889H30.7703H30.6516H30.5328H30.4139H30.295H30.176H30.0569H29.9378H29.8186H29.6994H29.5801H29.4608H29.3415H29.2221H29.1027H28.9832H28.8637H28.7442H28.6247H28.5052H28.3856H28.2661H28.1465H28.027H27.9074H27.7878H27.6683H27.5487H27.4292H27.3097H27.1902H27.0707H26.9513H26.8319H26.7125H26.5932H26.4739H26.3547H26.2355H26.1163H25.9972H25.8782H25.7592H25.6403H25.5215H25.4027H25.284H25.1654H25.0469H24.9284H24.8101H24.6918H24.5736H24.4555H24.3376H24.2197H24.102H23.9843H23.8668H23.7494H23.6321H23.5149H23.3979H23.281H23.1642H23.0476H22.9311H22.8148H22.6986H22.5826H22.4667H22.351H22.2354H22.12H22.0048H21.8898H21.7749H21.6602H21.5457H21.4314H21.3172H21.2033H21.0896H20.976H20.8627H20.7496H20.6367H20.5239H20.4115H20.2992H20.1871H20.0753H19.9637H19.8524H19.7413H19.6304H19.5198H19.4094H19.2993H19.1894H19.0798H18.9704H18.8613H18.7525H18.6439H18.5356H18.4276H18.3199H18.2125H18.1053H17.9984H17.8919H17.7856H17.6797H17.574H17.4686H17.3636H17.2589H17.1545H17.0504H16.9466H16.8432H16.7401H16.6373H16.5349H16.4328H16.3311H16.2297H16.1286H16.028H15.9276H15.8277H15.7281H15.6289H15.53H15.4315H15.3334H15.2357H15.1384H15.0414H14.9449H14.8487H14.753H14.6576H14.5627H14.4681H14.374H14.2803H14.187H14.0942H14.0017H13.9097H13.8182H13.727H13.6363H13.5461H13.4563H13.3669H13.278H13.1896H13.1016H13.014H12.927H12.8404H12.7543H12.6687H12.5835H12.4988H12.4147H12.331H12.2478H12.1651H12.0829H12.0012H11.92H11.8393H11.7592H11.6795H11.6004H11.5218H11.4437H11.3662H11.2892H11.2127H11.1368H11.0614H10.9866H10.9123H10.8386H10.7654H10.6928H10.6207H10.5493H10.4784H10.408H10.3383H10.2691H10.2005H10.1326H10.0652H9.99835H9.93214H9.86654H9.80154H9.73715H9.67337H9.61021H9.54767H9.48575H9.42446H9.36379H9.30376H9.24436H9.18561H9.12749H9.07003H9.01321H8.95704H8.90153H8.84668H8.7925H8.73898H8.68613H8.63395H8.58245H8.53163H8.48149H8.43204H8.38328H8.33521H8.28784H8.24117H8.1952H8.14994H8.10539H8.06155H8.01843H7.97603H7.93436H7.89341H7.85319H7.81371H7.77496H7.73696H7.6997H7.66318H7.62742H7.59241H7.55816H7.52467H7.49194H7.45998H7.4288H7.39838H7.36875H7.3399H7.31183H7.28455H7.25806H7.23236H7.20747H7.18337H7.16008H7.1376H7.11593H7.09507H7.07504H7.05582H7.03743H7.01987H7.00314H6.98725H6.97219H6.95798H6.94461H6.93209H6.92042H6.90961H6.89966C6.56044 41 6.34433 40.9609 6.21387 40.9163C6.09678 40.8763 6.0684 40.8395 6.06415 40.834L6.06392 40.8337C6.04893 40.8144 5.93339 40.6304 6.0547 39.9545Z" stroke="#154889" stroke-width="2"/>
<path d="M1.07201 64.9544L1.07203 64.9543C1.24191 64.0069 1.77268 61.0506 2.26262 58.3216C2.64689 56.1812 3.00606 54.1806 3.14629 53.399L3.14631 53.3989C3.22774 52.9447 3.57166 52.594 4.07078 52.3244C4.30853 52.1959 4.54458 52.1075 4.72341 52.0514C4.79698 52.0283 4.85852 52.0115 4.90349 52H4.91392H4.9284H4.94325H4.95847H4.97406H4.99001H5.00634H5.02302H5.04007H5.05748H5.07525H5.09338H5.11187H5.13071H5.1499H5.16945H5.18935H5.20959H5.23019H5.25113H5.27241H5.29404H5.31601H5.33832H5.36097H5.38396H5.40728H5.43093H5.45492H5.47924H5.50389H5.52886H5.55416H5.57979H5.60574H5.63201H5.65861H5.68552H5.71275H5.74029H5.76815H5.79632H5.8248H5.85359H5.88269H5.9121H5.94181H5.97183H6.00215H6.03276H6.06368H6.09489H6.12641H6.15821H6.19031H6.2227H6.25538H6.28834H6.3216H6.35514H6.38896H6.42307H6.45745H6.49212H6.52706H6.56228H6.59777H6.63354H6.66958H6.70589H6.74247H6.77931H6.81642H6.8538H6.89143H6.92933H6.96749H7.0059H7.04457H7.0835H7.12268H7.16211H7.20179H7.24172H7.2819H7.32233H7.36299H7.40391H7.44506H7.48645H7.52808H7.56995H7.61205H7.65438H7.69695H7.73975H7.78277H7.82603H7.86951H7.91321H7.95714H8.00129H8.04566H8.09025H8.13505H8.18007H8.2253H8.27075H8.31641H8.36227H8.40835H8.45463H8.50111H8.5478H8.59469H8.64178H8.68906H8.73655H8.78423H8.83211H8.88017H8.92843H8.97688H9.02552H9.07434H9.12335H9.17254H9.22191H9.27146H9.32119H9.3711H9.42119H9.47145H9.52188H9.57248H9.62325H9.67419H9.7253H9.77658H9.82801H9.87961H9.93137H9.98329H10.0354H10.0876H10.14H10.1925H10.2452H10.2981H10.351H10.4042H10.4575H10.5109H10.5645H10.6182H10.672H10.726H10.7801H10.8344H10.8888H10.9433H10.9979H11.0527H11.1076H11.1627H11.2178H11.2731H11.3285H11.384H11.4396H11.4954H11.5513H11.6073H11.6634H11.7196H11.7759H11.8323H11.8888H11.9455H12.0022H12.059H12.116H12.173H12.2301H12.2873H12.3447H12.4021H12.4596H12.5172H12.5749H12.6326H12.6905H12.7484H12.8064H12.8645H12.9227H12.9809H13.0393H13.0976H13.1561H13.2147H13.2733H13.332H13.3907H13.4495H13.5084H13.5673H13.6263H13.6854H13.7445H13.8036H13.8629H13.9221H13.9815H14.0408H14.1003H14.1597H14.2192H14.2788H14.3384H14.398H14.4577H14.5174H14.5772H14.637H14.6968H14.7566H14.8165H14.8764H14.9364H14.9963H15.0563H15.1163H15.1763H15.2364H15.2964H15.3565H15.4166H15.4767H15.5368H15.597H15.6571H15.7172H15.7774H15.8376H15.8977H15.9579H16.018H16.0782H16.1383H16.1985H16.2586H16.3187H16.3789H16.439H16.4991H16.5591H16.6192H16.6793H16.7393H16.7993H16.8593H16.9192H16.9792H17.0391H17.099H17.1588H17.2187H17.2785H17.3382H17.3979H17.4576H17.5173H17.5769H17.6364H17.696H17.7554H17.8149H17.8742H17.9336H17.9929H18.0521H18.1113H18.1704H18.2294H18.2884H18.3474H18.4063H18.4651H18.5238H18.5825H18.6412H18.6997H18.7582H18.8166H18.8749H18.9332H18.9914H19.0495H19.1075H19.1655H19.2233H19.2811H19.3388H19.3964H19.4539H19.5113H19.5687H19.6259H19.6831H19.7401H19.7971H19.8539H19.9107H19.9673H20.0239H20.0803H20.1366H20.1929H20.249H20.305H20.3609H20.4166H20.4723H20.5278H20.5832H20.6385H20.6937H20.7488H20.8037H20.8585H20.9132H20.9677H21.0221H21.0764H21.1306H21.1846H21.2384H21.2922H21.3457H21.3992H21.4525H21.5057H21.5587H21.6115H21.6643H21.7168H21.7692H21.8215H21.8736H21.9255H21.9773H22.0289H22.0804H22.1317H22.1828H22.2338H22.2846H22.3352H22.3857H22.436H22.4861H22.536H22.5858H22.6354H22.6848H22.734H22.783H22.8319H22.8805H22.929H22.9773H23.0254H23.0733H23.121H23.1685H23.2159H23.263H23.3099H23.3566H23.4031H23.4495H23.4956H23.5415H23.5872H23.6326H23.6779H23.723H23.7678H23.8124H23.8568H23.901H23.945H23.9887H24.0322H24.0755H24.1186H24.1614H24.204H24.2464H24.2885H24.3304H24.3721H24.4135H24.4547H24.4957H24.5364H24.5768H24.6171H24.657H24.6968H24.7362H24.7754H24.8144H24.8531H24.8916H24.9298H24.9677H25.0054H25.0428H25.08H25.1168H25.1535H25.1898H25.2259H25.2617H25.2973H25.3325H25.3675H25.4022H25.4366H25.4708H25.5047H25.5382H25.5716H25.6046H25.6373H25.6697H25.7019H25.7337H25.7653H25.7965H25.8275H25.8582H25.8885H25.9186H25.9484H25.9778H26.007H26.0358H26.0643H26.0926H26.1205H26.1481H26.1753H26.2023H26.2289H26.2553H26.2813H26.307H26.3323H26.3573H26.382H26.4064H26.4304H26.4542H26.4775H26.5006H26.5233H26.5456H26.5677H26.5893H26.6107H26.6317H26.6523H26.6726H26.6926H26.7122H26.7314H26.7503H26.7689H26.7871H26.8049H26.8224H26.8395H26.8562H26.8726H26.8886H26.9043H26.9195H26.9344H26.949H26.9631H26.9769H26.9903H27.0034H27.016H27.0283H27.0402H27.0517H27.0628H27.0736H27.0839C27.7464 52 27.9345 52.1081 27.9666 52.1302C27.9739 52.1475 27.9883 52.1924 27.9957 52.2835C28.0086 52.4443 27.9943 52.6867 27.9299 53.0458L27.9299 53.0459C27.7801 53.881 27.2975 56.5696 26.8301 59.1729C26.4059 61.5363 25.9942 63.8294 25.8558 64.6012C25.728 65.3138 25.5385 65.5979 25.3792 65.7324C25.2219 65.8651 24.9183 66 24.212 66H24.2023H24.1922H24.1817H24.1709H24.1596H24.148H24.1359H24.1235H24.1107H24.0975H24.0839H24.07H24.0556H24.0409H24.0258H24.0104H23.9945H23.9783H23.9618H23.9448H23.9275H23.9098H23.8918H23.8734H23.8546H23.8355H23.816H23.7962H23.776H23.7555H23.7346H23.7133H23.6917H23.6698H23.6475H23.6249H23.6019H23.5786H23.555H23.531H23.5067H23.482H23.457H23.4317H23.4061H23.3801H23.3538H23.3272H23.3002H23.273H23.2454H23.2175H23.1892H23.1607H23.1318H23.1027H23.0732H23.0434H23.0133H22.9829H22.9522H22.9212H22.8899H22.8583H22.8264H22.7942H22.7617H22.7289H22.6958H22.6624H22.6287H22.5948H22.5605H22.526H22.4912H22.4561H22.4207H22.3851H22.3492H22.313H22.2765H22.2397H22.2027H22.1654H22.1279H22.0901H22.052H22.0136H21.975H21.9362H21.897H21.8576H21.818H21.7781H21.738H21.6976H21.6569H21.6161H21.5749H21.5335H21.4919H21.4501H21.408H21.3656H21.323H21.2802H21.2372H21.1939H21.1504H21.1067H21.0627H21.0185H20.9741H20.9295H20.8846H20.8395H20.7942H20.7487H20.703H20.6571H20.6109H20.5646H20.518H20.4712H20.4242H20.3771H20.3297H20.2821H20.2343H20.1863H20.1381H20.0898H20.0412H19.9924H19.9435H19.8944H19.845H19.7955H19.7458H19.6959H19.6459H19.5957H19.5452H19.4947H19.4439H19.393H19.3419H19.2906H19.2391H19.1875H19.1357H19.0838H19.0317H18.9794H18.927H18.8744H18.8217H18.7688H18.7158H18.6626H18.6092H18.5558H18.5021H18.4483H18.3944H18.3403H18.2861H18.2318H18.1773H18.1227H18.0679H18.0131H17.958H17.9029H17.8476H17.7922H17.7367H17.681H17.6253H17.5694H17.5134H17.4573H17.401H17.3447H17.2882H17.2316H17.1749H17.1181H17.0612H17.0042H16.9471H16.8899H16.8326H16.7752H16.7177H16.6601H16.6024H16.5446H16.4867H16.4288H16.3707H16.3126H16.2543H16.196H16.1377H16.0792H16.0206H15.962H15.9033H15.8445H15.7857H15.7268H15.6678H15.6088H15.5496H15.4905H15.4312H15.3719H15.3125H15.2531H15.1936H15.1341H15.0745H15.0149H14.9552H14.8954H14.8357H14.7758H14.716H14.656H14.5961H14.5361H14.476H14.416H14.3559H14.2957H14.2355H14.1753H14.1151H14.0549H13.9946H13.9343H13.8739H13.8136H13.7532H13.6928H13.6324H13.572H13.5116H13.4511H13.3907H13.3302H13.2697H13.2093H13.1488H13.0883H13.0278H12.9673H12.9069H12.8464H12.7859H12.7254H12.665H12.6046H12.5441H12.4837H12.4233H12.3629H12.3025H12.2422H12.1819H12.1216H12.0613H12.001H11.9408H11.8806H11.8204H11.7603H11.7002H11.6401H11.5801H11.5201H11.4601H11.4002H11.3403H11.2805H11.2207H11.161H11.1013H11.0417H10.9821H10.9226H10.8631H10.8037H10.7443H10.685H10.6258H10.5666H10.5075H10.4484H10.3895H10.3305H10.2717H10.2129H10.1542H10.0956H10.0371H9.97863H9.92024H9.86194H9.80373H9.74559H9.68755H9.62959H9.57172H9.51394H9.45625H9.39866H9.34116H9.28376H9.22646H9.16926H9.11216H9.05516H8.99827H8.94148H8.88481H8.82824H8.77178H8.71544H8.6592H8.60309H8.54709H8.49121H8.43545H8.37982H8.3243H8.26891H8.21365H8.15851H8.10351H8.04863H7.99389H7.93929H7.88481H7.83048H7.77628H7.72223H7.66832H7.61455H7.56092H7.50744H7.45411H7.40094H7.34791H7.29503H7.24231H7.18974H7.13734H7.08509H7.033H6.98107H6.92931H6.87771H6.82628H6.77502H6.72393H6.673H6.62226H6.57168H6.52129H6.47107H6.42103H6.37117H6.32149H6.27199H6.22269H6.17356H6.12463H6.07589H6.02734H5.97898H5.93081H5.88285H5.83508H5.78751H5.74014H5.69297H5.64601H5.59925H5.5527H5.50636H5.46023H5.41431H5.3686H5.32311H5.27784H5.23278H5.18794H5.14332H5.09893H5.05476H5.01082H4.9671H4.92361H4.88035H4.83733H4.79454H4.75198H4.70966H4.66757H4.62573H4.58413H4.54277H4.50166H4.46079H4.42017H4.37979H4.33967H4.2998H4.26019H4.22082H4.18172H4.14287H4.10429H4.06596H4.0279H3.9901H3.95257H3.91531H3.87831H3.84159H3.80514H3.76896H3.73306H3.69743H3.66208H3.62702H3.59223H3.55773H3.52351H3.48958H3.45593H3.42258H3.38951H3.35674H3.32426H3.29208H3.2602H3.22861H3.19732H3.16634H3.13566H3.10528H3.07521H3.04545H3.01599H2.98685H2.95802H2.92951H2.90131H2.87342H2.84586H2.81862H2.79169H2.7651H2.73882H2.71287H2.68726H2.66197H2.63701H2.61238H2.58809H2.56414H2.54052H2.51724H2.4943H2.47171H2.44945H2.42754H2.40598H2.38477H2.36391H2.3434H2.32324H2.30343H2.28398H2.26489H2.24616H2.22779H2.20978H2.19213H2.17485H2.15794H2.1414H2.12522H2.10942H2.09399H2.07893H2.06425H2.04995H2.03603H2.02248H2.00932H1.99655H1.98416H1.97215H1.96054H1.94931H1.93848H1.92804H1.918C1.53922 66 1.29799 65.9687 1.14858 65.9271C1.08235 65.9087 1.0469 65.8919 1.0304 65.8823C1.02349 65.8636 1.01216 65.8228 1.00536 65.7478C0.990785 65.5871 1.00347 65.3364 1.07201 64.9544ZM27.9622 52.1214C27.9623 52.1213 27.9628 52.1221 27.9637 52.1238C27.9626 52.1223 27.9622 52.1214 27.9622 52.1214ZM1.0184 65.8742C1.01851 65.8741 1.01975 65.875 1.0218 65.8769C1.01932 65.8752 1.0183 65.8742 1.0184 65.8742ZM1.03435 65.8919C1.03579 65.8941 1.03639 65.8954 1.03633 65.8955C1.03627 65.8955 1.03555 65.8944 1.03435 65.8919Z" stroke="#FFAD00" stroke-width="2"/>
</svg>
