<svg width="331" height="371" viewBox="0 0 331 371" fill="none" xmlns="http://www.w3.org/2000/svg">
<path d="M308.503 47.2822H27.3739C20.7465 47.2822 15.3739 52.6548 15.3739 59.2822V68.3698C15.3739 74.9972 20.7465 80.3698 27.3739 80.3698H308.503C315.13 80.3698 320.503 74.9972 320.503 68.3698V59.2822C320.503 52.6548 315.13 47.2822 308.503 47.2822Z" fill="#F4F4F4" stroke="#154889" stroke-width="3"/>
<path d="M308.503 126.945H27.3739C20.7465 126.945 15.3739 132.318 15.3739 138.945V148.033C15.3739 154.66 20.7465 160.033 27.3739 160.033H308.503C315.13 160.033 320.503 154.66 320.503 148.033V138.945C320.503 132.318 315.13 126.945 308.503 126.945Z" fill="#F4F4F4" stroke="#154889" stroke-width="3"/>
<path d="M310.832 206.898H29.7031C23.0757 206.898 17.7031 212.271 17.7031 218.898V227.985C17.7031 234.613 23.0757 239.985 29.7031 239.985H310.832C317.459 239.985 322.832 234.613 322.832 227.985V218.898C322.832 212.271 317.459 206.898 310.832 206.898Z" fill="#F4F4F4" stroke="#154889" stroke-width="3"/>
<path d="M308.503 286.85H27.3739C20.7465 286.85 15.3739 292.223 15.3739 298.85V307.938C15.3739 314.565 20.7465 319.938 27.3739 319.938H308.503C315.13 319.938 320.503 314.565 320.503 307.938V298.85C320.503 292.223 315.13 286.85 308.503 286.85Z" fill="#F4F4F4" stroke="#154889" stroke-width="3"/>
<rect x="1.73389" y="2.45972" width="31.9384" height="366.477" rx="10.5" fill="#F4F4F4" stroke="#154889" stroke-width="3"/>
<rect x="297.546" y="2.45972" width="31.9384" height="366.477" rx="10.5" fill="#F4F4F4" stroke="#154889" stroke-width="3"/>
</svg>
