<svg width="26" height="26" viewBox="0 0 26 26" fill="none" xmlns="http://www.w3.org/2000/svg">
<path d="M18.5421 7C18.2896 7 18.0842 7.20545 18.0842 7.4579C18.0842 7.71035 18.2896 7.9158 18.5421 7.9158C18.7946 7.9158 19 7.71039 19 7.4579C19 7.20541 18.7946 7 18.5421 7ZM13.0594 8.88114C10.8211 8.88114 9 10.7022 9 12.9406C9 15.1789 10.8211 17 13.0594 17C15.2978 17 17.1189 15.1789 17.1189 12.9406C17.1189 10.7022 15.2978 8.88114 13.0594 8.88114Z" fill="white"/>
<path d="M18.6466 0.5H7.35337C3.57441 0.5 0.5 3.57441 0.5 7.35342V18.6466C0.5 22.4256 3.57441 25.5 7.35337 25.5H18.6466C22.4256 25.5 25.5 22.4256 25.5 18.6466V7.35342C25.5 3.57441 22.4256 0.5 18.6466 0.5ZM13 19.857C9.21899 19.857 6.14302 16.781 6.14302 13C6.14302 9.21899 9.21904 6.14307 13 6.14307C16.781 6.14307 19.857 9.21904 19.857 13C19.857 16.781 16.781 19.857 13 19.857ZM20.2671 7.81621C19.1184 7.81621 18.1838 6.88164 18.1838 5.73291C18.1838 4.58418 19.1184 3.64956 20.2671 3.64956C21.4159 3.64956 22.3504 4.58413 22.3504 5.73286C22.3504 6.88159 21.4159 7.81621 20.2671 7.81621Z" fill="white"/>
</svg>
