<svg width="50" height="50" viewBox="0 0 50 50" fill="none" xmlns="http://www.w3.org/2000/svg">
<rect width="50" height="50" rx="25" fill="#232323"/>
<path d="M30.5421 19C30.2896 19 30.0842 19.2054 30.0842 19.4579C30.0842 19.7103 30.2896 19.9158 30.5421 19.9158C30.7946 19.9158 31 19.7104 31 19.4579C31 19.2054 30.7946 19 30.5421 19ZM25.0594 20.8811C22.8211 20.8811 21 22.7022 21 24.9406C21 27.1789 22.8211 29 25.0594 29C27.2978 29 29.1189 27.1789 29.1189 24.9406C29.1189 22.7022 27.2978 20.8811 25.0594 20.8811Z" fill="white"/>
<path d="M30.6466 12.5H19.3534C15.5744 12.5 12.5 15.5744 12.5 19.3534V30.6466C12.5 34.4256 15.5744 37.5 19.3534 37.5H30.6466C34.4256 37.5 37.5 34.4256 37.5 30.6466V19.3534C37.5 15.5744 34.4256 12.5 30.6466 12.5ZM25 31.857C21.219 31.857 18.143 28.781 18.143 25C18.143 21.219 21.219 18.1431 25 18.1431C28.781 18.1431 31.857 21.219 31.857 25C31.857 28.781 28.781 31.857 25 31.857ZM32.2671 19.8162C31.1184 19.8162 30.1838 18.8816 30.1838 17.7329C30.1838 16.5842 31.1184 15.6496 32.2671 15.6496C33.4159 15.6496 34.3504 16.5841 34.3504 17.7329C34.3504 18.8816 33.4159 19.8162 32.2671 19.8162Z" fill="white"/>
</svg>
