<svg width="274" height="39" viewBox="0 0 274 39" fill="none" xmlns="http://www.w3.org/2000/svg">
<path d="M129.713 4.35214C129.713 5.86849 128.482 7.09772 126.963 7.09772C125.445 7.09772 124.214 5.86849 124.214 4.35214C124.214 2.83587 125.445 1.60657 126.963 1.60657C128.482 1.60657 129.713 2.83587 129.713 4.35214Z" fill="#FFAD00"/>
<path fill-rule="evenodd" clip-rule="evenodd" d="M37.0351 36.1178C37.2275 35.0432 39.9381 19.9152 40.7082 15.6177C41.4783 11.3203 44.1282 9.09485 48.3746 9.09485C52.621 9.09485 58.8669 9.09485 59.6077 9.09485C60.3485 9.09485 60.5131 9.24951 60.3737 10.0267C60.2343 10.8039 60.1046 11.4575 59.8685 12.8222C59.7417 13.556 59.5353 13.754 58.7729 13.7536C58.0104 13.7533 48.5409 13.754 47.5398 13.754C46.5387 13.754 45.5063 14.6859 45.3303 15.6177C45.1544 16.5495 41.8058 35.3376 41.6698 36.0971C41.5337 36.8566 41.3136 37.0496 40.566 37.0496C39.8183 37.0496 38.5408 37.0496 37.8013 37.0496C37.0618 37.0496 36.903 36.8551 37.0351 36.1178Z" fill="#232323"/>
<path fill-rule="evenodd" clip-rule="evenodd" d="M65.2087 9.09485C65.5171 9.09485 67.2198 9.09485 67.9735 9.09485C68.7271 9.09485 68.8722 9.28796 68.7397 10.0267C68.6072 10.7655 65.2364 29.5789 65.0666 30.5268C64.8968 31.4746 65.7143 32.3904 66.5989 32.3904C67.4835 32.3904 75.8937 32.3904 76.899 32.3904C77.9042 32.3904 78.9313 31.4639 79.0993 30.5268C79.2673 29.5897 82.6389 10.7727 82.7726 10.0267C82.9062 9.28067 83.1318 9.09485 83.8726 9.09485C84.6134 9.09485 85.924 9.09485 86.6722 9.09485C87.4205 9.09485 87.5711 9.28682 87.4386 10.0267C87.3061 10.7665 84.5149 26.3436 83.7653 30.5268C83.0158 34.71 80.2617 37.0496 76.0642 37.0496C71.8666 37.0496 69.9023 37.0496 65.764 37.0496C61.6259 37.0496 59.6891 34.6912 60.4353 30.5268C61.1815 26.3624 63.9773 10.7597 64.1085 10.0267C64.2398 9.29374 64.4737 9.09485 65.2087 9.09485Z" fill="#232323"/>
<path fill-rule="evenodd" clip-rule="evenodd" d="M124.7 9.09485C123.959 9.09485 123.732 9.29055 123.6 10.0267C123.468 10.7628 119.057 35.3839 118.925 36.1178C118.794 36.8517 118.95 37.0496 119.691 37.0496C120.432 37.0496 121.745 37.0496 122.491 37.0496C123.237 37.0496 123.46 36.8469 123.591 36.1178C123.722 35.3887 128.132 10.7774 128.266 10.0267C128.4 9.27603 128.24 9.09485 127.5 9.09485C126.759 9.09485 124.7 9.09485 124.7 9.09485Z" fill="#232323"/>
<path fill-rule="evenodd" clip-rule="evenodd" d="M99.7077 9.0947C95.5505 9.09485 90.9493 11.2957 89.841 17.4814C89.0537 21.8756 92.6585 25.4016 96.7334 25.4016C97.3792 25.4016 105.565 25.4016 108.019 25.4016C110.24 25.4016 111.536 26.6081 111.084 29.1291C110.759 30.9407 108.88 32.3904 106.767 32.3904C99.9134 32.3904 94.8923 32.3904 88.1028 32.3904C87.1696 32.3904 87.1308 32.6081 87.0027 33.3223C86.8747 34.0365 86.6325 35.3886 86.5018 36.1178C86.3712 36.8471 86.5703 37.0496 87.2679 37.0496C87.9656 37.0496 101.591 37.0496 105.932 37.0496C110.272 37.0496 114.79 34.4871 115.75 29.1291C116.71 23.771 113.002 20.7425 108.854 20.7425C105.985 20.7425 98.6616 20.7425 97.5683 20.7425C95.4859 20.7425 94.0553 19.5167 94.4199 17.4814C94.8321 15.1802 96.6825 13.754 98.8729 13.754C105.106 13.754 111.339 13.754 117.572 13.754C118.296 13.754 118.548 13.5158 118.672 12.8222C118.796 12.1285 119.04 10.7675 119.173 10.0265C119.305 9.28553 119.096 9.09485 118.406 9.09485C117.717 9.09485 99.7077 9.0947 99.7077 9.0947Z" fill="#232323"/>
<path fill-rule="evenodd" clip-rule="evenodd" d="M48.7512 20.746C49.8495 20.7505 55.0439 20.7425 55.8729 20.7425C56.6672 20.7425 56.8173 21.0034 56.4499 21.6743C56.0826 22.3452 55.3243 23.7296 54.9186 24.4698C54.513 25.2101 54.1861 25.4016 53.3209 25.4016C52.4557 25.4016 46.9711 25.4016 46.2011 25.4016C45.4312 25.4016 45.2629 25.129 45.6239 24.4698C45.985 23.8107 46.7394 22.4336 47.1552 21.6743C47.5621 20.9312 47.8756 20.7425 48.7512 20.746Z" fill="#154889"/>
<path fill-rule="evenodd" clip-rule="evenodd" d="M184.022 10.027C183.873 10.8608 180.475 29.8228 180.349 30.5269C179.58 34.8206 178.993 37.0497 176.847 37.0497C174.955 37.0497 173.937 34.646 171.574 30.5269C171.139 29.7704 165.72 20.325 165.081 19.212C164.442 18.099 163.879 18.0907 163.678 19.212C163.477 20.3334 160.781 35.3801 160.649 36.1179C160.517 36.8557 160.293 37.0497 159.548 37.0497C158.804 37.0497 157.521 37.0497 156.784 37.0497C156.046 37.0497 155.885 36.8592 156.018 36.1179C156.15 35.3765 159.556 16.3671 159.691 15.6179C160.457 11.3405 161.028 9.09515 163.192 9.09515C165.33 9.09515 165.993 11.3688 168.431 15.6179C170.87 19.8671 174.259 25.7738 174.924 26.9327C175.589 28.0914 176.101 28.1924 176.327 26.9327C176.553 25.6728 179.22 10.7887 179.356 10.027C179.493 9.26524 179.709 9.09515 180.456 9.09515C181.204 9.09515 182.5 9.09515 183.256 9.09515C184.017 9.09515 184.157 9.27087 184.022 10.027Z" fill="#232323"/>
<path fill-rule="evenodd" clip-rule="evenodd" d="M7.12871 9.09462C6.40078 9.09485 6.15593 9.31662 6.0286 10.0267C5.90134 10.7368 5.29398 14.1267 5.16032 14.8722C5.02675 15.6177 5.22997 15.8041 5.92653 15.8041C6.62303 15.8041 31.3418 15.8041 32.0563 15.8041C32.7708 15.8041 33.0186 15.6425 33.1565 14.8722C33.2945 14.102 33.8997 10.725 34.0248 10.0267C34.1498 9.32832 33.9061 9.09485 33.2584 9.09485C32.6108 9.09485 7.12871 9.09462 7.12871 9.09462Z" fill="#FFAD00"/>
<path fill-rule="evenodd" clip-rule="evenodd" d="M5.22548 19.7174C5.93491 19.7174 22.1998 19.7174 22.9562 19.7174C23.7127 19.7174 23.8289 20.0537 23.7224 20.6493C23.6158 21.2449 22.9642 24.8819 22.8543 25.4949C22.7444 26.1078 22.3386 26.4267 21.7541 26.4267C21.1695 26.4267 4.70419 26.4267 4.02338 26.4267C3.34249 26.4267 3.14483 26.1205 3.25702 25.4949C3.36913 24.8692 3.99164 21.3948 4.12522 20.6493C4.25887 19.9038 5.22548 19.7174 5.22548 19.7174Z" fill="#154889"/>
<path fill-rule="evenodd" clip-rule="evenodd" d="M3.32194 30.3404C4.07057 30.3404 11.9287 30.3404 12.654 30.3404C13.3793 30.3404 13.5398 30.6044 13.4201 31.2723C13.3006 31.9402 12.6736 35.4382 12.5519 36.1179C12.4302 36.7975 12.1294 37.0497 11.4518 37.0497C10.7744 37.0497 2.82326 37.0497 2.11977 37.0497C1.41635 37.0497 1.22668 36.8266 1.35363 36.1179C1.48051 35.4091 2.08841 32.0177 2.22191 31.2723C2.35533 30.5269 3.32194 30.3404 3.32194 30.3404Z" fill="#C4C4C4"/>
<path fill-rule="evenodd" clip-rule="evenodd" d="M128.605 30.6376L131.36 15.2372C132.304 10.8863 134.962 8.74639 139.163 8.5985H149.646C153.641 8.73955 155.871 10.5629 155.104 15.2372L152.386 30.4113C151.321 35.0786 148.544 37.0326 144.547 37.0499H134.065C130.863 36.8466 128.297 33.6271 128.605 30.6376ZM133.355 30.4113L136.074 15.2372C136.271 14.1204 137.143 13.3407 138.313 13.3407H148.782C149.862 13.3407 150.564 14.1289 150.356 15.2372L147.637 30.4113C147.234 31.7026 146.491 32.3426 145.397 32.3078H134.914C133.778 32.1514 133.276 31.5054 133.355 30.4113Z" fill="#232323"/>
<path fill-rule="evenodd" clip-rule="evenodd" d="M191.779 9.09485C190.956 9.09485 190.704 9.29055 190.557 10.0267C190.41 10.7628 185.508 35.3839 185.362 36.1178C185.216 36.8517 185.39 37.0496 186.214 37.0496C186.935 37.0496 200.859 36.9932 204.311 36.9725C205.213 36.9671 205.298 36.2127 205.298 36.2123C205.298 36.2123 205.824 33.687 205.83 33.6434C205.97 32.6571 205.035 32.689 205.035 32.689L191.253 32.6965C191.253 32.6965 195.267 12.4146 195.742 10.0267C195.891 9.27618 195.713 9.09485 194.89 9.09485C194.068 9.09485 191.779 9.09485 191.779 9.09485Z" fill="#154889"/>
<path d="M220.659 4.35214C220.659 5.86849 219.428 7.09772 217.909 7.09772C216.391 7.09772 215.16 5.86849 215.16 4.35214C215.16 2.83587 216.391 1.60657 217.909 1.60657C219.428 1.60657 220.659 2.83587 220.659 4.35214Z" fill="#FFAD00"/>
<path fill-rule="evenodd" clip-rule="evenodd" d="M215.646 9.09485C214.905 9.09485 214.678 9.29055 214.546 10.0267C214.414 10.7628 210.002 35.3839 209.871 36.1178C209.739 36.8517 209.896 37.0496 210.637 37.0496C211.378 37.0496 212.69 37.0496 213.437 37.0496C214.183 37.0496 214.406 36.8469 214.537 36.1178C214.668 35.3887 219.078 10.7774 219.212 10.0267C219.346 9.27603 219.186 9.09485 218.446 9.09485C217.705 9.09485 215.646 9.09485 215.646 9.09485Z" fill="#232323"/>
<path fill-rule="evenodd" clip-rule="evenodd" d="M249.95 10.027C249.801 10.8608 246.403 29.8228 246.277 30.5269C245.508 34.8206 244.92 37.0497 242.775 37.0497C240.882 37.0497 239.865 34.646 237.501 30.5269C237.067 29.7704 231.648 20.325 231.009 19.212C230.37 18.099 229.807 18.0907 229.606 19.212C229.405 20.3334 226.709 35.3801 226.576 36.1179C226.444 36.8557 226.221 37.0497 225.476 37.0497C224.731 37.0497 223.449 37.0497 222.712 37.0497C221.974 37.0497 221.813 36.8592 221.945 36.1179C222.078 35.3765 225.484 16.3671 225.618 15.6179C226.385 11.3405 226.956 9.09515 229.12 9.09515C231.258 9.09515 231.921 11.3688 234.359 15.6179C236.797 19.8671 240.186 25.7738 240.851 26.9327C241.516 28.0914 242.029 28.1924 242.255 26.9327C242.48 25.6728 245.148 10.7887 245.284 10.027C245.421 9.26524 245.637 9.09515 246.384 9.09515C247.132 9.09515 248.427 9.09515 249.184 9.09515C249.945 9.09515 250.085 9.27087 249.95 10.027Z" fill="#232323"/>
<path fill-rule="evenodd" clip-rule="evenodd" d="M250.038 36.1178C250.23 35.0432 252.941 19.9152 253.711 15.6177C254.481 11.3203 257.131 9.09485 261.377 9.09485C265.624 9.09485 271.87 9.09485 272.611 9.09485C273.351 9.09485 273.516 9.24958 273.377 10.0267C273.237 10.8039 273.107 11.4575 272.871 12.8222C272.745 13.556 272.538 13.754 271.776 13.7536C271.013 13.7533 261.544 13.754 260.543 13.754C259.541 13.754 258.509 14.6859 258.333 15.6177C258.28 15.8999 257.871 18.1848 257.413 20.7469C257.413 20.7469 266.361 20.744 269.029 20.744C269.406 20.744 269.685 20.8714 269.609 21.2962C269.604 21.3219 268.701 24.7891 268.701 24.7891C268.609 25.3031 268.029 25.2725 267.771 25.2835L256.61 25.4016C256.152 27.9704 255.684 30.4289 255.323 32.4544C255.323 32.4544 265.198 32.43 268.314 32.442C268.888 32.4443 269.287 32.8328 269.161 33.5085L268.66 36.1879C268.538 36.8405 268.2 36.9613 267.706 36.9634C265.389 36.9732 255.755 37.0496 250.804 37.0496C250.065 37.0496 249.906 36.8551 250.038 36.1178Z" fill="#232323"/>
</svg>
