<svg width="358" height="352" viewBox="0 0 358 352" fill="none" xmlns="http://www.w3.org/2000/svg">
<path d="M344.126 44.9141H33.9645C27.3371 44.9141 21.9645 50.2866 21.9645 56.9141V62.2707C21.9645 68.8981 27.3371 74.2707 33.9645 74.2707H344.126C350.754 74.2707 356.126 68.8982 356.126 62.2707V56.9141C356.126 50.2866 350.754 44.9141 344.126 44.9141Z" fill="#F4F4F4" stroke="#154889" stroke-width="3"/>
<path d="M344.126 283.221H33.9645C27.3371 283.221 21.9645 288.594 21.9645 295.221V300.578C21.9645 307.205 27.3371 312.578 33.9645 312.578H344.126C350.754 312.578 356.126 307.205 356.126 300.578V295.221C356.126 288.594 350.754 283.221 344.126 283.221Z" fill="#F4F4F4" stroke="#154889" stroke-width="3"/>
<path d="M2.34183 78.9639V40.7969C2.34183 34.1695 7.71441 28.7969 14.3418 28.7969H23.8157C30.4432 28.7969 35.8157 34.1695 35.8157 40.7969V78.9639C35.8157 85.5913 30.4432 90.9639 23.8158 90.9639H14.3418C7.71441 90.9639 2.34183 85.5913 2.34183 78.9639Z" fill="#F4F4F4" stroke="#154889" stroke-width="3"/>
<path d="M5.80469 317.271V279.104C5.80469 272.476 11.1773 267.104 17.8047 267.104H27.2786C33.906 267.104 39.2786 272.476 39.2786 279.104V317.271C39.2786 323.898 33.906 329.271 27.2786 329.271H17.8047C11.1773 329.271 5.80469 323.898 5.80469 317.271Z" fill="#F4F4F4" stroke="#154889" stroke-width="3"/>
<rect x="60.4012" y="1.51562" width="55.8679" height="348.129" rx="8.5" fill="#F4F4F4" stroke="#154889" stroke-width="3"/>
<rect x="131.966" y="1.51562" width="55.8679" height="348.129" rx="8.5" fill="#F4F4F4" stroke="#154889" stroke-width="3"/>
<rect x="203.531" y="1.51562" width="55.8679" height="348.129" rx="8.5" fill="#F4F4F4" stroke="#154889" stroke-width="3"/>
<rect x="275.096" y="1.51562" width="55.8679" height="348.129" rx="8.5" fill="#F4F4F4" stroke="#154889" stroke-width="3"/>
</svg>
