<svg width="26" height="28" viewBox="0 0 26 28" fill="none" xmlns="http://www.w3.org/2000/svg">
<path d="M15.7778 0.25H10.2222C4.875 0.25 0.5 4.57945 0.5 9.87099V13.9943C0.5 17.7052 2.6875 21.1069 6.05556 22.6875V27.2919C6.05556 27.7042 6.57639 27.9103 6.85417 27.6011L10.8819 23.6153H15.7778C21.125 23.6153 25.5 19.2858 25.5 13.9943V9.87099C25.5 4.57945 21.125 0.25 15.7778 0.25ZM19.4236 18.2894L18 19.6638C16.5069 21.1069 12.6528 19.4576 9.25 16.0216C5.84722 12.5855 4.35417 8.73709 5.77778 7.29394L7.16667 5.91951C7.6875 5.4041 8.55556 5.43846 9.14583 5.95387L11.1597 8.01551C11.8889 8.73709 11.5764 9.97407 10.6389 10.249C9.97917 10.4551 9.52778 11.1767 9.73611 11.8296C10.0833 13.3414 12.0278 15.2656 13.4861 15.6436C14.1458 15.781 14.875 15.4374 15.1181 14.7846C15.4306 13.8568 16.6806 13.5819 17.375 14.3035L19.3889 16.3652C19.9444 16.8462 19.9444 17.7052 19.4236 18.2894ZM14.25 6.77853C14.1111 6.77853 13.9722 6.77853 13.8333 6.81289C13.5903 6.84725 13.3472 6.64109 13.3125 6.40056C13.2778 6.16004 13.4861 5.91951 13.7292 5.88515C13.9028 5.85079 14.0764 5.85079 14.25 5.85079C16.7847 5.85079 18.8681 7.91243 18.8681 10.4208C18.8681 10.5926 18.8681 10.7644 18.8333 10.9362C18.7986 11.1767 18.5556 11.3829 18.3125 11.3485C18.0694 11.3141 17.8611 11.0736 17.8958 10.8331C17.8958 10.6956 17.9306 10.5582 17.9306 10.4208C17.9653 8.42784 16.2986 6.77853 14.25 6.77853ZM17.0278 10.4551C17.0278 10.6956 16.8194 10.9018 16.5764 10.9018C16.3333 10.9018 16.125 10.6956 16.125 10.4551C16.125 9.45866 15.2917 8.63401 14.2847 8.63401C14.0417 8.63401 13.8333 8.42784 13.8333 8.18732C13.8333 7.94679 14.0417 7.74063 14.2847 7.74063C15.7778 7.70627 17.0278 8.94325 17.0278 10.4551ZM20.5694 11.9326C20.5 12.1732 20.2569 12.345 19.9792 12.2762C19.7361 12.2075 19.5972 11.967 19.6667 11.7265C19.7708 11.3141 19.8056 10.9018 19.8056 10.4551C19.8056 7.43138 17.3056 4.95741 14.25 4.95741H13.8333C13.5903 4.95741 13.3472 4.78561 13.3472 4.54509C13.3472 4.30456 13.5208 4.06404 13.7639 4.06404C13.9375 4.06404 14.1111 4.02968 14.25 4.02968C17.8264 4.02968 20.7431 6.91597 20.7431 10.4551C20.7431 10.9362 20.6736 11.4516 20.5694 11.9326Z" fill="white"/>
</svg>
