<svg width="50" height="50" viewBox="0 0 50 50" fill="none" xmlns="http://www.w3.org/2000/svg">
<rect width="50" height="50" rx="25" fill="#232323"/>
<path d="M27.7778 11.25H22.2222C16.875 11.25 12.5 15.5794 12.5 20.871V24.9943C12.5 28.7052 14.6875 32.1069 18.0556 33.6875V38.2919C18.0556 38.7042 18.5764 38.9103 18.8542 38.6011L22.8819 34.6153H27.7778C33.125 34.6153 37.5 30.2858 37.5 24.9943V20.871C37.5 15.5794 33.125 11.25 27.7778 11.25ZM31.4236 29.2894L30 30.6638C28.5069 32.1069 24.6528 30.4576 21.25 27.0216C17.8472 23.5855 16.3542 19.7371 17.7778 18.2939L19.1667 16.9195C19.6875 16.4041 20.5556 16.4385 21.1458 16.9539L23.1597 19.0155C23.8889 19.7371 23.5764 20.9741 22.6389 21.249C21.9792 21.4551 21.5278 22.1767 21.7361 22.8296C22.0833 24.3414 24.0278 26.2656 25.4861 26.6436C26.1458 26.781 26.875 26.4374 27.1181 25.7846C27.4306 24.8568 28.6806 24.5819 29.375 25.3035L31.3889 27.3652C31.9444 27.8462 31.9444 28.7052 31.4236 29.2894ZM26.25 17.7785C26.1111 17.7785 25.9722 17.7785 25.8333 17.8129C25.5903 17.8473 25.3472 17.6411 25.3125 17.4006C25.2778 17.16 25.4861 16.9195 25.7292 16.8852C25.9028 16.8508 26.0764 16.8508 26.25 16.8508C28.7847 16.8508 30.8681 18.9124 30.8681 21.4208C30.8681 21.5926 30.8681 21.7644 30.8333 21.9362C30.7986 22.1767 30.5556 22.3829 30.3125 22.3485C30.0694 22.3141 29.8611 22.0736 29.8958 21.8331C29.8958 21.6956 29.9306 21.5582 29.9306 21.4208C29.9653 19.4278 28.2986 17.7785 26.25 17.7785ZM29.0278 21.4551C29.0278 21.6956 28.8194 21.9018 28.5764 21.9018C28.3333 21.9018 28.125 21.6956 28.125 21.4551C28.125 20.4587 27.2917 19.634 26.2847 19.634C26.0417 19.634 25.8333 19.4278 25.8333 19.1873C25.8333 18.9468 26.0417 18.7406 26.2847 18.7406C27.7778 18.7063 29.0278 19.9433 29.0278 21.4551ZM32.5694 22.9326C32.5 23.1732 32.2569 23.345 31.9792 23.2762C31.7361 23.2075 31.5972 22.967 31.6667 22.7265C31.7708 22.3141 31.8056 21.9018 31.8056 21.4551C31.8056 18.4314 29.3056 15.9574 26.25 15.9574H25.8333C25.5903 15.9574 25.3472 15.7856 25.3472 15.5451C25.3472 15.3046 25.5208 15.064 25.7639 15.064C25.9375 15.064 26.1111 15.0297 26.25 15.0297C29.8264 15.0297 32.7431 17.916 32.7431 21.4551C32.7431 21.9362 32.6736 22.4516 32.5694 22.9326Z" fill="white"/>
</svg>
