<svg width="51" height="51" viewBox="0 0 51 51" fill="none" xmlns="http://www.w3.org/2000/svg">
<rect x="0.25" y="0.5" width="50" height="50" rx="25" fill="#232323"/>
<path fill-rule="evenodd" clip-rule="evenodd" d="M38.1307 18.5834C38.3174 17.9594 38.1307 17.5 37.2363 17.5H34.2833C33.5318 17.5 33.1853 17.8966 32.9974 18.3343C32.9974 18.3343 31.4956 21.9869 29.3683 24.3594C28.6798 25.0474 28.367 25.2657 27.9913 25.2657C27.8034 25.2657 27.521 25.0474 27.521 24.4223V18.5834C27.521 17.8337 27.314 17.5 26.6886 17.5H22.0447C21.5755 17.5 21.2932 17.8474 21.2932 18.1777C21.2932 18.8874 22.3574 19.052 22.4665 21.0497V25.3903C22.4665 26.3423 22.2944 26.5149 21.9187 26.5149C20.9174 26.5149 18.4819 22.8451 17.0363 18.6463C16.7561 17.8291 16.4727 17.5 15.7178 17.5H12.7625C11.9187 17.5 11.75 17.8966 11.75 18.3343C11.75 19.1137 12.7512 22.9857 16.413 28.1069C18.8542 31.604 22.291 33.5 25.4218 33.5C27.2994 33.5 27.5312 33.0794 27.5312 32.3537V29.7103C27.5312 28.868 27.7089 28.7 28.304 28.7C28.7428 28.7 29.4931 28.9194 31.2458 30.6051C33.2483 32.604 33.5779 33.5 34.7051 33.5H37.6582C38.5019 33.5 38.9249 33.0794 38.6819 32.2474C38.4142 31.42 37.458 30.2189 36.1901 28.7937C35.5016 27.9823 34.4689 27.108 34.155 26.6703C33.7174 26.1091 33.8423 25.8589 34.155 25.3594C34.155 25.3594 37.755 20.3011 38.1296 18.5834H38.1307Z" fill="white"/>
</svg>
