<svg width="28" height="16" viewBox="0 0 28 16" fill="none" xmlns="http://www.w3.org/2000/svg">
<path fill-rule="evenodd" clip-rule="evenodd" d="M26.8807 1.08343C27.0674 0.459429 26.8807 0 25.9863 0H23.0333C22.2818 0 21.9353 0.396571 21.7474 0.834286C21.7474 0.834286 20.2456 4.48686 18.1183 6.85943C17.4298 7.54743 17.117 7.76571 16.7413 7.76571C16.5534 7.76571 16.271 7.54743 16.271 6.92229V1.08343C16.271 0.333714 16.064 0 15.4386 0H10.7947C10.3255 0 10.0432 0.347429 10.0432 0.677714C10.0432 1.38743 11.1074 1.552 11.2165 3.54971V7.89029C11.2165 8.84229 11.0444 9.01486 10.6687 9.01486C9.66743 9.01486 7.23186 5.34514 5.78626 1.14629C5.50614 0.329143 5.22265 0 4.46779 0H1.51248C0.668746 0 0.5 0.396571 0.5 0.834286C0.5 1.61371 1.50123 5.48571 5.16303 10.6069C7.60423 14.104 11.041 16 14.1718 16C16.0494 16 16.2812 15.5794 16.2812 14.8537V12.2103C16.2812 11.368 16.4589 11.2 17.054 11.2C17.4928 11.2 18.2431 11.4194 19.9958 13.1051C21.9983 15.104 22.3279 16 23.4551 16H26.4082C27.2519 16 27.6749 15.5794 27.4319 14.7474C27.1642 13.92 26.208 12.7189 24.9401 11.2937C24.2516 10.4823 23.2189 9.608 22.905 9.17029C22.4674 8.60914 22.5923 8.35886 22.905 7.85943C22.905 7.85943 26.505 2.80114 26.8796 1.08343H26.8807Z" fill="white"/>
</svg>
