<svg width="82" height="82" viewBox="0 0 82 82" fill="none" xmlns="http://www.w3.org/2000/svg">
<g clip-path="url(#clip0_101_656)">
<path fill-rule="evenodd" clip-rule="evenodd" d="M41.2663 24.9106C49.0116 24.9106 56.0246 28.0502 61.1 33.1273C66.1755 38.2027 69.3167 45.2157 69.3167 52.9625C69.3167 60.7094 66.1771 67.7207 61.1 72.7962C56.0229 77.8717 49.0116 81.0112 41.2663 81.0112C33.5211 81.0112 26.5082 77.8717 21.4311 72.7962C16.3556 67.7207 13.2161 60.7078 13.2161 52.9625C13.2161 45.2173 16.3556 38.2043 21.4311 33.1273C26.5082 28.0502 33.5211 24.9106 41.2663 24.9106ZM14.5461 9.55464C14.492 9.38165 14.3971 9.22421 14.2694 9.09563C14.1417 8.96705 13.9848 8.87111 13.8122 8.81592C13.5267 8.72421 13.2165 8.74967 12.9497 8.88668C12.683 9.0237 12.4816 9.26105 12.3899 9.54654L10.3535 15.8581L3.80223 15.8451C3.42477 15.8176 3.04083 15.9812 2.80269 16.31C2.71528 16.4304 2.65247 16.5668 2.61786 16.7115C2.58325 16.8561 2.57752 17.0062 2.601 17.153C2.62447 17.2999 2.67669 17.4407 2.75467 17.5674C2.83265 17.694 2.93484 17.8041 3.05541 17.8912L8.42895 21.7792L6.36669 28.0842L6.36993 28.0858C6.31501 28.2556 6.30091 28.4359 6.32878 28.6121C6.35664 28.7883 6.42569 28.9554 6.53031 29.0999C6.89805 29.6038 7.60275 29.7155 8.10657 29.3478L13.4672 25.4371L18.7581 29.296C19.0481 29.5422 19.4547 29.6362 19.8419 29.5098C20.4364 29.317 20.762 28.6771 20.5676 28.0842L18.5054 21.7792L23.8789 17.8912L23.8773 17.8895C24.0221 17.7849 24.1399 17.6474 24.221 17.4882C24.3022 17.3291 24.3442 17.1529 24.3438 16.9742C24.3438 16.6748 24.2249 16.3876 24.0131 16.1758C23.8014 15.9641 23.5142 15.8451 23.2147 15.8451L16.5808 15.8581L14.5461 9.55464ZM14.6805 17.3339L13.4655 13.5722L12.2505 17.3339C12.1774 17.5617 12.0339 17.7604 11.8405 17.9013C11.6472 18.0422 11.4141 18.1181 11.1749 18.118L7.21881 18.1099L10.4232 20.4281C10.6169 20.5686 10.7611 20.767 10.835 20.9946C10.9089 21.2222 10.9088 21.4674 10.8347 21.6949L9.60507 25.4566L12.7835 23.1383C13.1707 22.8451 13.7183 22.8241 14.1314 23.1254L17.3276 25.4566L16.111 21.737C16.0254 21.5053 16.018 21.2519 16.09 21.0155C16.162 20.7792 16.3093 20.5728 16.5095 20.4281L19.7139 18.1099L15.8113 18.118C15.5628 18.1297 15.3175 18.0592 15.1131 17.9175C14.9087 17.7758 14.7567 17.5707 14.6805 17.3339ZM70.1445 9.55464C70.0904 9.38165 69.9955 9.22421 69.8678 9.09563C69.7401 8.96705 69.5832 8.87111 69.4106 8.81592C69.1251 8.72421 68.8149 8.74967 68.5481 8.88668C68.2814 9.0237 68.08 9.26105 67.9883 9.54654L65.9519 15.8581L59.4006 15.8451C59.0232 15.8176 58.6392 15.9812 58.4011 16.31C58.3137 16.4304 58.2509 16.5668 58.2163 16.7115C58.1816 16.8561 58.1759 17.0062 58.1994 17.153C58.2229 17.2999 58.2751 17.4407 58.3531 17.5674C58.431 17.694 58.5332 17.8041 58.6538 17.8912L64.0274 21.7792L61.9651 28.0842L61.9683 28.0858C61.9134 28.2556 61.8993 28.4359 61.9272 28.6121C61.955 28.7883 62.0241 28.9554 62.1287 29.0999C62.4965 29.6038 63.2011 29.7155 63.705 29.3478L69.0656 25.4371L74.3565 29.296C74.6464 29.5422 75.0531 29.6362 75.4403 29.5098C76.0348 29.317 76.3604 28.6771 76.166 28.0842L74.1038 21.7792L79.4773 17.8912L79.4757 17.8895C79.6205 17.7849 79.7383 17.6474 79.8194 17.4882C79.9006 17.3291 79.9426 17.1529 79.9422 16.9742C79.9422 16.826 79.913 16.6791 79.8563 16.5421C79.7995 16.4051 79.7164 16.2807 79.6115 16.1758C79.5067 16.071 79.3822 15.9878 79.2452 15.9311C79.1082 15.8743 78.9614 15.8451 78.8131 15.8451L72.1792 15.8581L70.1445 9.55464ZM70.2805 17.3339L69.0656 13.5722L67.8505 17.3339C67.7775 17.5617 67.6339 17.7604 67.4406 17.9013C67.2472 18.0422 67.0141 18.1181 66.7749 18.118L62.8188 18.1099L66.0232 20.4281C66.2169 20.5686 66.3611 20.767 66.435 20.9946C66.5089 21.2222 66.5088 21.4674 66.4347 21.6949L65.2051 25.4566L68.3835 23.1383C68.7707 22.8451 69.3183 22.8241 69.7314 23.1254L72.9276 25.4566L71.711 21.737C71.6254 21.5053 71.6181 21.2519 71.69 21.0155C71.762 20.7792 71.9093 20.5728 72.1095 20.4281L75.3139 18.1099L71.4113 18.118C70.9107 18.1423 70.4393 17.8312 70.2805 17.3339ZM42.3453 0.808265L44.38 7.11168L51.0139 7.09872C51.3134 7.09872 51.6006 7.21769 51.8123 7.42944C52.0241 7.6412 52.143 7.9284 52.143 8.22786C52.143 8.6037 51.9584 8.93742 51.6765 9.14316L51.6781 9.14478L46.3046 13.0328L48.3668 19.3378C48.5596 19.9324 48.2356 20.5706 47.6411 20.7634C47.2539 20.8898 46.8473 20.7942 46.5573 20.5496L41.2663 16.6907L35.9058 20.6014C35.786 20.6888 35.6503 20.7517 35.5062 20.7865C35.3622 20.8213 35.2126 20.8274 35.0662 20.8044C34.9198 20.7814 34.7794 20.7297 34.653 20.6523C34.5266 20.575 34.4166 20.4735 34.3295 20.3536C34.2242 20.2094 34.1547 20.0422 34.1268 19.8659C34.0989 19.6895 34.1134 19.5091 34.1691 19.3394L34.1659 19.3378L36.2281 13.0328L30.8546 9.14478C30.655 9.00035 30.508 8.79475 30.4359 8.5592C30.3638 8.32364 30.3705 8.07099 30.4549 7.83957C30.5394 7.60815 30.697 7.41061 30.904 7.27691C31.1109 7.14321 31.3557 7.08065 31.6014 7.09872L38.1527 7.11168L40.1907 0.800165C40.264 0.571514 40.4082 0.372155 40.6024 0.231003C40.7967 0.0898498 41.0308 0.014242 41.2709 0.0151447C41.511 0.0160474 41.7446 0.0934136 41.9378 0.236023C42.131 0.378632 42.2737 0.579069 42.3453 0.808265ZM42.4814 8.5875L41.2663 4.82586L40.0513 8.5875C39.9783 8.81531 39.8347 9.01401 39.6414 9.15494C39.448 9.29586 39.2149 9.37173 38.9757 9.37158L35.0213 9.36348L38.2256 11.6817C38.4193 11.8223 38.5635 12.0206 38.6374 12.2482C38.7114 12.4758 38.7112 12.721 38.6371 12.9485L37.4075 16.7102L40.5859 14.392C40.9731 14.0987 41.5207 14.0777 41.9338 14.379L45.1301 16.7102L43.9134 12.9907C43.8279 12.7589 43.8205 12.5055 43.8924 12.2691C43.9644 12.0328 44.1117 11.8265 44.312 11.6817L47.5163 9.36348L43.6137 9.37158C43.1115 9.39427 42.6401 9.08484 42.4814 8.5875ZM41.2663 29.6443C34.8285 29.6443 28.9981 32.2541 24.7796 36.4742C20.5595 40.6943 17.9497 46.523 17.9497 52.9609C17.9497 59.3988 20.5595 65.2292 24.7796 69.4477C28.9997 73.6678 34.8285 76.2776 41.2663 76.2776C47.7042 76.2776 53.5346 73.6678 57.7531 69.4477C61.9732 65.2276 64.583 59.3988 64.583 52.9609C64.583 46.523 61.9732 40.6927 57.7531 36.4742C53.5346 32.2541 47.7042 29.6443 41.2663 29.6443ZM56.1493 38.078C52.3407 34.2694 47.0789 31.9123 41.2663 31.9123C35.4538 31.9123 30.192 34.2677 26.3818 38.078C22.5732 41.8866 20.2161 47.1484 20.2161 52.9609C20.2161 58.7735 22.5716 64.0352 26.3818 67.8455C30.1904 71.6541 35.4538 74.0112 41.2663 74.0112C47.0789 74.0112 52.3407 71.6557 56.1493 67.8455C59.9579 64.0369 62.315 58.7735 62.315 52.9609C62.315 47.1484 59.9595 41.8866 56.1493 38.078ZM59.4978 34.7294C54.8322 30.0638 48.3862 27.1786 41.2663 27.1786C34.1465 27.1786 27.7005 30.0638 23.0349 34.7294C18.3693 39.395 15.4841 45.841 15.4841 52.9609C15.4841 60.0808 18.3693 66.5268 23.0349 71.1924C27.7005 75.858 34.1465 78.7432 41.2663 78.7432C48.3862 78.7432 54.8322 75.858 59.4978 71.1924C64.1634 66.5268 67.0487 60.0808 67.0487 52.9609C67.0487 45.841 64.1634 39.395 59.4978 34.7294Z" fill="#FFAD00"/>
<path fill-rule="evenodd" clip-rule="evenodd" d="M35.6847 63.1487C35.1325 63.1487 34.6847 62.701 34.6847 62.1487V61.5407C34.6847 61.0105 34.2549 60.5807 33.7247 60.5807C33.1945 60.5807 32.7647 60.1509 32.7647 59.6207V50.3647C32.7647 49.8345 33.1945 49.4047 33.7247 49.4047C34.2549 49.4047 34.6847 48.9749 34.6847 48.4447V43.0127C34.6847 42.4604 35.1325 42.0127 35.6847 42.0127H42.1567C44.5591 42.0127 46.7582 42.4868 48.3035 43.8566C49.8258 45.1916 50.5167 47.0079 50.5167 49.0527C50.5167 50.2921 50.2359 51.4759 49.6746 52.5771C49.0322 53.8371 47.9914 54.7677 46.7165 55.4168C46.6894 55.4307 46.6622 55.4445 46.6349 55.4581C46.2639 55.6429 46.0047 56.0077 46.0047 56.4222V59.5807C46.0047 60.133 45.557 60.5807 45.0047 60.5807H43.3087C42.7565 60.5807 42.3087 61.0284 42.3087 61.5807V62.1487C42.3087 62.701 41.861 63.1487 41.3087 63.1487H35.6847ZM40.3087 59.5807C40.3087 59.0284 40.7565 58.5807 41.3087 58.5807H43.0047C43.557 58.5807 44.0047 58.133 44.0047 57.5807V57.2527C44.0047 56.7004 43.557 56.2527 43.0047 56.2527H41.2447C40.7278 56.2527 40.3087 55.8336 40.3087 55.3167C40.3087 54.7998 40.7278 54.3807 41.2447 54.3807H41.8687C42.5589 54.3807 43.1886 54.338 43.7576 54.2527C43.7707 54.2507 43.7837 54.2488 43.7967 54.2468C44.5827 54.1256 45.2521 53.9222 45.8047 53.6367C46.7807 53.1407 47.4767 52.4847 47.8927 51.6687C48.3087 50.8527 48.5167 49.9807 48.5167 49.0527C48.5167 47.4847 48.0047 46.2527 46.9807 45.3567C45.9727 44.4607 44.3647 44.0127 42.1567 44.0127H37.6847C37.1325 44.0127 36.6847 44.4604 36.6847 45.0127V50.4447C36.6847 50.9749 36.2549 51.4047 35.7247 51.4047C35.1945 51.4047 34.7647 51.8345 34.7647 52.3647V53.4207C34.7647 53.9509 35.1945 54.3807 35.7247 54.3807H35.7487C36.2657 54.3807 36.6847 54.7998 36.6847 55.3167C36.6847 55.8336 36.2657 56.2527 35.7487 56.2527H35.7247C35.1945 56.2527 34.7647 56.6825 34.7647 57.2127V57.6207C34.7647 58.1509 35.1945 58.5807 35.7247 58.5807C36.2549 58.5807 36.6847 59.0105 36.6847 59.5407V60.1487C36.6847 60.701 37.1325 61.1487 37.6847 61.1487H39.3087C39.861 61.1487 40.3087 60.701 40.3087 60.1487V59.5807ZM40.3087 50.4047C40.3087 50.957 40.7565 51.4047 41.3087 51.4047H41.5087C41.6067 51.4047 41.7027 51.4032 41.7967 51.4003C41.9743 51.3948 42.145 51.3841 42.3087 51.3682C42.6674 51.3333 42.9927 51.2735 43.2847 51.1887C43.4712 51.1285 43.6419 51.0559 43.7967 50.9709C44.0537 50.8298 44.267 50.6544 44.4367 50.4447C44.7087 50.1087 44.8447 49.6847 44.8447 49.1727C44.8447 48.4367 44.6127 47.8927 44.1487 47.5407C43.7401 47.2166 43.1268 47.0353 42.3087 46.9966C42.1978 46.9913 42.0832 46.9887 41.9647 46.9887H41.3087C40.7565 46.9887 40.3087 47.4364 40.3087 47.9887V50.4047ZM42.697 49.2765C42.6348 49.2936 42.5659 49.3098 42.49 49.3245C42.3947 49.3429 42.3087 49.2679 42.3087 49.1709C42.3087 49.0784 42.3872 49.0047 42.4791 49.0155C42.5961 49.0292 42.6904 49.047 42.7647 49.0657C42.8118 49.0776 42.8446 49.1196 42.8447 49.1683C42.8447 49.1697 42.8447 49.1712 42.8447 49.1727C42.8447 49.1974 42.831 49.22 42.8088 49.2309C42.7814 49.2444 42.7448 49.2601 42.697 49.2765Z" fill="#154889"/>
</g>
<defs>
<clipPath id="clip0_101_656">
<rect width="81" height="81" fill="white" transform="translate(0.76474 0.0126953)"/>
</clipPath>
</defs>
</svg>
