<svg width="72" height="73" viewBox="0 0 72 73" fill="none" xmlns="http://www.w3.org/2000/svg">
<path d="M69.9698 36.524C71.6342 33.2311 70.945 29.3224 68.2547 26.7974L64.35 23.1324C63.4493 22.2872 62.8987 21.3334 62.6169 20.1305L61.3953 14.9167C60.554 11.3243 57.5134 8.7729 53.8293 8.56801L48.4826 8.27059C47.2492 8.20196 46.2141 7.82523 45.2253 7.08512L40.9382 3.87606C37.9848 1.66515 34.0154 1.66487 31.0615 3.87606L26.7744 7.08498C25.7856 7.82523 24.7504 8.20196 23.5171 8.27059L18.1704 8.56801C14.4865 8.7729 11.4459 11.3243 10.6044 14.9167L9.38278 20.1306C9.1011 21.3334 8.55042 22.2872 7.64985 23.1325L3.74498 26.7974C1.05468 29.3223 0.365479 33.2311 2.02992 36.524L4.44585 41.3031C5.00315 42.4056 5.1944 43.4903 5.04773 44.7168L4.4121 50.0341C3.97434 53.6975 5.95884 57.1348 9.35043 58.5875L14.2732 60.6957C15.4086 61.182 16.2523 61.8899 16.9286 62.9237L19.8596 67.4055C21.8789 70.4934 25.6085 71.851 29.1406 70.7835L34.2667 69.2343C35.4492 68.8769 36.5505 68.877 37.7328 69.2343L42.8588 70.7835C43.643 71.0216 44.458 71.1429 45.2776 71.1436C47.9991 71.1435 50.58 69.7908 52.1398 67.4055L55.071 62.9237C55.7471 61.8899 56.5909 61.1819 57.7263 60.6956L62.649 58.5873C66.0406 57.1347 68.0252 53.6974 67.5873 50.034L66.9517 44.7165C66.805 43.4901 66.9963 42.4053 67.5536 41.303L69.9698 36.524ZM65.5459 40.2882C64.7897 41.7841 64.5189 43.32 64.7179 44.9838L65.3535 50.3012C65.6768 53.0061 64.2676 55.4468 61.7635 56.5193L56.8408 58.6276C55.3002 59.2874 54.1055 60.2899 53.1882 61.6923L50.257 66.1742C48.7661 68.454 46.1174 69.4179 43.5099 68.6298L38.3839 67.0807C37.5817 66.8382 36.791 66.717 35.9999 66.717C35.209 66.717 34.4178 66.8382 33.6158 67.0807L28.4898 68.6298C25.8823 69.4177 23.2338 68.454 21.7427 66.1742L18.8117 61.6923C17.8942 60.2897 16.6994 59.2872 15.1589 58.6276L10.2362 56.5193C7.73198 55.4469 6.32292 53.0061 6.64621 50.3012L7.28184 44.9838C7.48082 43.3198 7.20998 41.7839 6.45384 40.2881L4.0379 35.5089C2.80912 33.0777 3.29835 30.3023 5.28468 28.4379L9.18956 24.7731C10.4114 23.6263 11.1912 22.2756 11.5734 20.6438L12.795 15.4298C13.4163 12.7775 15.5753 10.9658 18.2953 10.8146L23.642 10.5172C25.3153 10.4241 26.7809 9.89059 28.1226 8.88639L32.4097 5.67732C34.5905 4.04495 37.4091 4.04481 39.5899 5.67732L43.877 8.88639C45.2187 9.89059 46.6844 10.4241 48.3576 10.5172L53.7043 10.8146C56.4244 10.9659 58.5832 12.7775 59.2045 15.4299L60.4261 20.6438C60.8083 22.2757 61.5883 23.6264 62.8102 24.7731L66.7149 28.4379C68.7012 30.3022 69.1904 33.0777 67.9617 35.5089L65.5459 40.2882ZM36 13.6803C23.3184 13.6803 13.0013 23.9974 13.0013 36.6789C13.0013 49.3605 23.3184 59.6776 36 59.6776C48.6816 59.6776 58.9986 49.3605 58.9986 36.6789C58.9986 23.9974 48.6816 13.6803 36 13.6803ZM36 57.4276C24.5592 57.4276 15.2513 48.1198 15.2513 36.6789C15.2513 25.2381 24.5592 15.9303 36 15.9303C47.4408 15.9303 56.7486 25.2381 56.7486 36.6789C56.7486 48.1198 47.4408 57.4276 36 57.4276ZM45.5756 26.2544H45.5588C44.4347 26.2588 43.3804 26.7006 42.5905 27.4987L33.2613 36.9207L29.4085 33.0677C28.6128 32.272 27.5548 31.8339 26.4292 31.8339C25.3035 31.8339 24.2456 32.272 23.4498 33.0678C21.8071 34.7106 21.8071 37.3836 23.4498 39.0263L30.2927 45.8692C31.1141 46.6905 32.193 47.1012 33.272 47.1012C34.351 47.1012 35.43 46.6906 36.2514 45.8692C38.8458 43.2747 41.4636 40.6194 43.9952 38.0517C45.5158 36.5081 47.0383 34.9663 48.5627 33.4264C50.1943 31.78 50.1857 29.1121 48.5436 27.4791C47.7492 26.6888 46.6958 26.2544 45.5756 26.2544ZM46.9645 31.8426C45.4388 33.3839 43.9149 34.927 42.3928 36.472C39.8641 39.0369 37.2492 41.6893 34.6604 44.278C33.8948 45.0436 32.649 45.0436 31.8838 44.278L25.0409 37.4351C24.2755 36.6697 24.2755 35.424 25.0409 34.6585C25.2228 34.4756 25.4392 34.3306 25.6775 34.232C25.9158 34.1333 26.1713 34.0829 26.4292 34.0836C26.9536 34.0836 27.4468 34.2878 27.8174 34.6585L32.4697 39.3109C32.6807 39.5218 32.9669 39.6404 33.2653 39.6404H33.2681C33.4163 39.64 33.563 39.6104 33.6997 39.5531C33.8364 39.4959 33.9604 39.4123 34.0647 39.3069L44.1894 29.0814C44.3694 28.8987 44.584 28.7536 44.8206 28.6545C45.0571 28.5554 45.3111 28.5043 45.5676 28.5041H45.5754C46.097 28.5041 46.5874 28.7064 46.9572 29.0741C47.7209 29.834 47.7243 31.0757 46.9645 31.8426Z" fill="#154889"/>
<path d="M69.9698 36.524C71.6342 33.2311 70.945 29.3224 68.2547 26.7974L64.35 23.1324C63.4493 22.2873 62.8988 21.3334 62.6169 20.1305L61.3953 14.9167C60.554 11.3243 57.5134 8.7729 53.8293 8.56801L48.4826 8.27059C47.2492 8.20197 46.2142 7.82523 45.2253 7.08512L40.9382 3.87606C37.9848 1.66515 34.0154 1.66487 31.0615 3.87606L26.7744 7.08498C25.7856 7.82523 24.7504 8.20197 23.5171 8.27059L18.1704 8.56801C14.4865 8.7729 11.4459 11.3243 10.6044 14.9167L9.38278 20.1306C9.1011 21.3334 8.55042 22.2872 7.64985 23.1325L3.74498 26.7974C1.05468 29.3223 0.365479 33.2311 2.02992 36.524L4.44585 41.3031C5.00315 42.4056 5.1944 43.4903 5.04773 44.7168L4.4121 50.0341C3.97434 53.6975 5.95884 57.1348 9.35043 58.5875L14.2732 60.6957C15.4086 61.182 16.2523 61.8899 16.9286 62.9237L19.8596 67.4055C21.8789 70.4934 25.6085 71.851 29.1406 70.7835L34.2667 69.2344C35.4492 68.8769 36.5505 68.877 37.7328 69.2344L42.8588 70.7835C43.643 71.0216 44.458 71.1429 45.2776 71.1436C47.9991 71.1435 50.58 69.7908 52.1398 67.4055L55.071 62.9237C55.7471 61.8899 56.5909 61.1819 57.7263 60.6956L62.649 58.5873C66.0406 57.1347 68.0252 53.6974 67.5873 50.034L66.9517 44.7165C66.805 43.4901 66.9963 42.4053 67.5536 41.303L69.9698 36.524ZM65.5459 40.2882C64.7897 41.7841 64.5189 43.32 64.7179 44.9838L65.3535 50.3012C65.6768 53.0061 64.2676 55.4468 61.7635 56.5193L56.8408 58.6276C55.3002 59.2874 54.1055 60.2899 53.1882 61.6923L50.257 66.1742C48.7661 68.454 46.1174 69.4179 43.5099 68.6298L38.3839 67.0807C37.5817 66.8382 36.791 66.717 35.9999 66.717C35.209 66.717 34.4178 66.8382 33.6158 67.0807L28.4898 68.6298C25.8823 69.4177 23.2338 68.454 21.7427 66.1742L18.8117 61.6923C17.8942 60.2897 16.6994 59.2872 15.1589 58.6276L10.2362 56.5193C7.73198 55.4469 6.32292 53.0061 6.64621 50.3012L7.28184 44.9838C7.48082 43.3198 7.20998 41.7839 6.45384 40.2881L4.0379 35.509C2.80912 33.0777 3.29835 30.3023 5.28468 28.4379L9.18956 24.7731C10.4114 23.6263 11.1912 22.2756 11.5734 20.6438L12.795 15.4298C13.4163 12.7775 15.5753 10.9658 18.2953 10.8146L23.642 10.5172C25.3153 10.4241 26.7809 9.89059 28.1226 8.88639L32.4097 5.67732C34.5905 4.04495 37.4091 4.04481 39.5899 5.67732L43.877 8.88639C45.2187 9.89059 46.6844 10.4241 48.3576 10.5172L53.7043 10.8146C56.4244 10.966 58.5833 12.7775 59.2045 15.43L60.4261 20.6438C60.8084 22.2757 61.5883 23.6264 62.8102 24.7731L66.7149 28.4379C68.7012 30.3022 69.1905 33.0777 67.9617 35.509L65.5459 40.2882ZM36 13.6803C23.3184 13.6803 13.0013 23.9974 13.0013 36.679C13.0013 49.3605 23.3184 59.6776 36 59.6776C48.6816 59.6776 58.9987 49.3605 58.9987 36.679C58.9987 23.9974 48.6816 13.6803 36 13.6803ZM36 57.4276C24.5592 57.4276 15.2513 48.1198 15.2513 36.679C15.2513 25.2381 24.5592 15.9303 36 15.9303C47.4408 15.9303 56.7487 25.2381 56.7487 36.679C56.7487 48.1198 47.4408 57.4276 36 57.4276Z" fill="#FFAD00"/>
</svg>
