<svg width="80" height="80" viewBox="0 0 80 80" fill="none" xmlns="http://www.w3.org/2000/svg">
<g clip-path="url(#clip0_200_18)">
<path d="M34.0899 67.7621L33.1416 57.1917C33.0379 56.0445 32.7919 54.9962 32.41 54.0748C30.4221 49.2898 26.2124 46.7795 23.8797 45.7098C22.965 45.29 22.1279 44.7042 21.3927 43.969L15.4329 38.0087C14.0624 36.6395 12.1086 35.9884 10.2322 36.2197L9.74224 25.6684C9.59036 22.4064 7.02505 19.71 3.7752 19.3957C1.71614 19.2071 0.0109863 20.8206 0.0109863 22.8134V41.8632C0.0109863 43.8957 0.58333 45.8715 1.66645 47.5776C4.72536 52.3962 8.40833 56.7109 12.6138 60.4018C14.318 61.8979 15.2955 64.1154 15.2955 66.4848V67.5975C13.349 67.5987 11.7657 69.1826 11.7657 71.1295V76.4564C11.7657 78.404 13.3504 79.9887 15.298 79.9887H33.0794C35.0271 79.9887 36.6118 78.404 36.6118 76.4564V71.1295C36.6118 69.5353 35.5432 68.2001 34.0899 67.7621ZM14.2625 58.5237C10.236 54.9895 6.70786 50.8562 3.77661 46.2376C2.94864 44.9331 2.51052 43.4204 2.51052 41.8632V22.8134C2.51052 22.2851 2.94239 21.8792 3.44224 21.8792C5.16083 21.8792 7.14036 23.5139 7.24552 25.7843L7.76974 37.0745C7.32629 37.3427 6.91817 37.6654 6.55489 38.035C5.20036 39.4079 5.21489 41.6423 6.58724 43.0153L19.9825 56.41C20.4707 56.8981 21.2615 56.8981 21.7496 56.41C22.2377 55.9218 22.2377 55.1311 21.7496 54.6429L8.35474 41.2482C7.94958 40.8431 7.94036 40.189 8.33458 39.7893C8.67285 39.4453 9.07493 39.1705 9.51833 38.9803C9.53661 38.9729 9.55552 38.965 9.57317 38.9565C10.9052 38.3939 12.5936 38.7051 13.6657 39.7767L19.6254 45.7364C20.5711 46.6821 21.6518 47.4376 22.8374 47.9812C24.8375 48.8989 28.4407 51.0357 30.1016 55.0337C30.3866 55.7195 30.5715 56.5214 30.6519 57.4159L31.5611 67.5486L17.7947 67.5973V66.485C17.7949 63.3961 16.5074 60.4946 14.2625 58.5237ZM34.1124 76.4564C34.1122 76.7303 34.0033 76.9929 33.8096 77.1866C33.6159 77.3802 33.3533 77.4891 33.0794 77.4893H15.298C15.0241 77.4891 14.7615 77.3802 14.5678 77.1866C14.3742 76.9929 14.2653 76.7303 14.265 76.4564V71.1295C14.2653 70.8556 14.3742 70.593 14.5678 70.3993C14.7615 70.2056 15.0241 70.0967 15.298 70.0965H33.0794C33.3533 70.0967 33.6159 70.2056 33.8096 70.3993C34.0033 70.593 34.1122 70.8556 34.1124 71.1295V76.4564ZM78.8638 20.272C78.1486 19.6221 77.1711 19.3018 76.2254 19.3957C72.9755 19.71 70.4104 22.4064 70.2577 25.6684L69.7683 36.2197C67.8841 35.9926 65.9388 36.6401 64.5671 38.0093L58.608 43.9684C57.871 44.705 57.0349 45.2906 56.1197 45.7098C53.7875 46.7801 49.5786 49.2898 47.5894 54.0748C47.2074 54.9962 46.961 56.0451 46.8585 57.1923L45.9108 67.762C44.4569 68.1996 43.3879 69.535 43.3879 71.1295V76.4564C43.3879 78.404 44.9732 79.9887 46.9208 79.9887H64.7027C66.6504 79.9887 68.2344 78.404 68.2344 76.4564V71.1295C68.2344 69.1822 66.6511 67.5979 64.7039 67.5973V66.4848C64.7039 64.1154 65.6814 61.8987 67.3863 60.4018C71.5929 56.7109 75.276 52.3956 78.3343 47.5776C79.4168 45.8715 79.9891 43.8957 79.9891 41.8632V22.8134C79.9887 22.3348 79.8884 21.8616 79.6946 21.424C79.5008 20.9864 79.2178 20.594 78.8638 20.272ZM65.735 71.1295V76.4564C65.735 77.0262 65.2713 77.4893 64.7025 77.4893H46.9207C46.3508 77.4893 45.8871 77.0262 45.8871 76.4564V71.1295C45.8871 70.5596 46.3508 70.0965 46.9207 70.0965H58.8615L63.4482 70.1179H63.4543C63.4916 70.1179 63.5252 70.0998 63.5621 70.0965H64.7027C65.2714 70.0965 65.735 70.5596 65.735 71.1295ZM77.4897 41.8632C77.4897 43.4204 77.0516 44.9331 76.223 46.2382C73.2929 50.8554 69.766 54.9889 65.7388 58.5237C63.4921 60.4946 62.2046 63.3961 62.2046 66.4848V67.5971H58.9271L48.4388 67.5484L49.348 57.4157C49.4286 56.5212 49.6129 55.7201 49.8983 55.0342C51.5593 51.0356 55.1618 48.8987 57.1619 47.9817C58.3469 47.4386 59.4269 46.6832 60.3752 45.7362L66.3343 39.7771C67.4057 38.7068 69.0704 38.3878 70.4286 38.957C70.4457 38.9656 70.4641 38.9729 70.4824 38.9801C70.9258 39.1706 71.3279 39.4456 71.6661 39.7898C72.0591 40.1889 72.0505 40.8429 71.6454 41.2481L58.2507 54.6428C57.7625 55.1309 57.7625 55.9217 58.2507 56.4098C58.7388 56.8979 59.5296 56.8979 60.0177 56.4098L73.4124 43.0151C74.7854 41.6428 74.7999 39.4089 73.4466 38.0361C73.0833 37.6653 72.6744 37.342 72.2299 37.0739L72.7546 25.7848C72.8497 23.7559 74.4447 22.0786 76.4644 21.8839C76.7305 21.8589 76.9855 21.9425 77.1832 22.1218C77.3808 22.3012 77.4894 22.5465 77.4894 22.8132V41.8632H77.4897ZM46.3435 38.7111C46.741 38.5645 47.1316 38.3978 47.5224 38.2351C50.1219 37.0315 51.7772 38.8368 51.9022 38.8923C52.399 39.3115 53.1336 39.2817 53.5924 38.8215L57.1046 35.31C57.326 35.0886 57.4563 34.7923 57.4697 34.4795C57.483 34.1667 57.3784 33.8603 57.1766 33.6209C57.121 33.4959 55.3279 31.8434 56.5104 29.2264C56.6849 28.8382 56.846 28.4618 56.9911 28.0676C57.9933 25.3946 60.4321 25.4973 60.5571 25.4493C60.8702 25.4243 61.1623 25.2823 61.3754 25.0515C61.5884 24.8207 61.7067 24.5181 61.7066 24.204V19.2432C61.7066 18.9378 61.5947 18.643 61.3921 18.4144C61.1896 18.1859 60.9103 18.0394 60.6071 18.0028C60.448 17.9423 57.9961 18.0453 56.9886 15.3625C56.8471 14.9884 56.6921 14.615 56.5175 14.1951C55.3152 11.5951 57.121 9.93902 57.1766 9.81402C57.3784 9.57466 57.483 9.26826 57.4697 8.95546C57.4563 8.64266 57.326 8.34627 57.1046 8.12496L53.5924 4.6134C53.1335 4.15449 52.3988 4.12277 51.9033 4.54137C51.7782 4.59715 50.1268 6.39699 47.5088 5.2059C47.1183 5.03137 46.7436 4.8709 46.3507 4.72684C43.7047 3.73184 43.764 1.24059 43.7158 1.11512C43.6802 0.81094 43.5341 0.530429 43.3054 0.326843C43.0766 0.123257 42.781 0.0107708 42.4747 0.0107422H37.5255C37.2196 0.0108049 36.9244 0.122998 36.6957 0.326085C36.467 0.529172 36.3207 0.809061 36.2844 1.11277C36.2366 1.23777 36.2947 3.73184 33.6594 4.72324C33.2561 4.87027 32.8802 5.03137 32.4836 5.20902C29.8761 6.39527 28.2204 4.59605 28.0952 4.54027C27.5972 4.12355 26.8657 4.15465 26.4074 4.61355L22.8958 8.12512C22.6745 8.3465 22.5443 8.64287 22.531 8.95562C22.5176 9.26838 22.6221 9.57476 22.8238 9.81418C22.8794 9.93918 24.6782 11.5948 23.4896 14.2068C23.318 14.5888 23.1579 14.9759 23.0094 15.3675C22.009 18.0289 19.5182 17.9553 19.3929 18.0028C19.0896 18.0393 18.8103 18.1858 18.6077 18.4143C18.4051 18.6429 18.2932 18.9378 18.2933 19.2432V24.204C18.2932 24.5182 18.4116 24.8209 18.6248 25.0517C18.8379 25.2825 19.1303 25.4245 19.4435 25.4493C19.5686 25.4973 22.0086 25.4042 23.0063 28.0596C23.1546 28.4623 23.315 28.8389 23.4908 29.2293C24.6738 31.8506 22.8794 33.4959 22.824 33.6209C22.6223 33.8603 22.5178 34.1667 22.5311 34.4795C22.5445 34.7922 22.6747 35.0886 22.896 35.31L26.4075 38.8215C26.8658 39.2804 27.6005 39.3109 28.0966 38.8936C28.2216 38.8379 29.87 37.0314 32.5254 38.2559C32.8982 38.4107 33.2713 38.5692 33.6499 38.7081C36.2908 39.7004 36.2368 42.197 36.2847 42.3221C36.321 42.6258 36.4673 42.9057 36.696 43.1088C36.9248 43.3119 37.22 43.4241 37.5258 43.4242H42.475C42.7813 43.4241 43.0769 43.3117 43.3057 43.1081C43.5345 42.9045 43.6805 42.624 43.7161 42.3198C43.7639 42.1948 43.6955 39.7053 46.3435 38.7111ZM41.3974 40.9248H38.6004C38.1238 38.8593 36.6204 37.1539 34.52 36.3656C34.2374 36.2611 33.9729 36.1514 33.5266 35.9665C31.4874 35.0232 29.2169 35.1568 27.4083 36.2875L25.43 34.3098C26.551 32.5159 26.6919 30.2454 25.7686 28.2018C25.6179 27.8668 25.4794 27.5434 25.3488 27.1889C24.5647 25.1009 22.8654 23.5998 20.7925 23.119V20.3207C22.8544 19.8528 24.5586 18.3504 25.3469 16.2509C25.4771 15.9089 25.6171 15.5708 25.7668 15.2368C26.6949 13.197 26.555 10.9284 25.4299 9.1259L27.4075 7.14762C29.2063 8.27215 31.4763 8.41371 33.5124 7.48684C33.848 7.33668 34.1715 7.19762 34.5289 7.06637C36.628 6.27746 38.1339 4.5634 38.6025 2.51012H41.3996C41.8768 4.57559 43.3802 6.28043 45.4818 7.06996C45.8283 7.19684 46.1518 7.33668 46.48 7.48371C48.5193 8.41246 50.7891 8.27324 52.5916 7.14684L54.5699 9.12449C53.441 10.9276 53.3032 13.1975 54.2282 15.1976C54.3733 15.5484 54.5186 15.9 54.6504 16.2459C55.4411 18.3498 57.1447 19.8526 59.2072 20.3207V23.1171C57.1411 23.5937 55.4363 25.0971 54.648 27.1968C54.5199 27.544 54.3808 27.8681 54.2319 28.2C53.3082 30.2429 53.4485 32.5103 54.5711 34.3092L52.5929 36.2868C50.7904 35.1579 48.5193 35.0201 46.5216 35.9457C46.1104 36.1165 45.7833 36.2536 45.4721 36.3686C43.3732 37.157 41.8672 38.8698 41.3974 40.9248Z" fill="#FFAD00"/>
<path d="M50.5477 21.7174C50.5477 15.9018 45.8163 11.1704 40 11.1704C34.1844 11.1704 29.453 15.9018 29.453 21.7174C29.453 27.5331 34.1844 32.2645 40 32.2645C45.8163 32.2645 50.5477 27.5331 50.5477 21.7174ZM40 29.7653C35.5628 29.7653 31.9524 26.1548 31.9524 21.7176C31.9524 17.2804 35.5628 13.6698 40 13.6698C44.4372 13.6698 48.0483 17.2803 48.0483 21.7174C48.0483 26.1546 44.4372 29.7653 40 29.7653Z" fill="#154889"/>
<path d="M42.7531 18.2211L38.4092 22.5656L37.2469 21.4033C36.7588 20.9151 35.968 20.9151 35.4799 21.4033C34.9917 21.8914 34.9917 22.6822 35.4799 23.1703L37.5258 25.2162C37.6418 25.3323 37.7796 25.4243 37.9312 25.4871C38.0827 25.5499 38.2452 25.5822 38.4093 25.5822C38.5734 25.5822 38.7359 25.5499 38.8875 25.4871C39.0391 25.4243 39.1768 25.3323 39.2928 25.2162L44.5203 19.9881C45.0085 19.5 45.0085 18.7092 44.5203 18.2211C44.0322 17.7329 43.2413 17.7329 42.7531 18.2211Z" fill="#154889"/>
</g>
<defs>
<clipPath id="clip0_200_18">
<rect width="80" height="80" fill="white"/>
</clipPath>
</defs>
</svg>
