<svg width="88" height="53" viewBox="0 0 88 53" fill="none" xmlns="http://www.w3.org/2000/svg">
<mask id="path-1-outside-1_92_534" maskUnits="userSpaceOnUse" x="0.858154" y="0.964844" width="87" height="52" fill="black">
<rect fill="white" x="0.858154" y="0.964844" width="87" height="52"/>
<path fill-rule="evenodd" clip-rule="evenodd" d="M10.538 50.6593L10.5337 50.6582C7.22553 49.7413 4.41034 48.4544 2.09553 46.7917C1.95899 46.6936 1.9145 46.5105 1.99079 46.3607L6.29207 37.9145C6.3873 37.7275 6.62698 37.6696 6.79702 37.7926C8.58511 39.086 10.6685 40.1152 13.0509 40.8776C15.4308 41.6392 17.831 42.0193 20.2526 42.0193C22.9892 42.0193 25.0978 41.4816 26.6143 40.4442C28.1158 39.417 28.8558 38.0228 28.8558 36.2291C28.8558 34.5159 28.1978 33.1887 26.8771 32.2111C25.5556 31.2329 23.371 30.7114 20.2526 30.7114H15.8585C15.3062 30.7114 14.8585 30.2637 14.8585 29.7114V23.332C14.8585 23.0879 14.9477 22.8523 15.1094 22.6695L22.7932 13.9816C23.364 13.3361 22.9058 12.3191 22.0441 12.3191H5.3434C4.79112 12.3191 4.3434 11.8713 4.3434 11.3191V3.78228C4.3434 3.23 4.79112 2.78228 5.3434 2.78228H37.4832C38.0355 2.78228 38.4832 3.23 38.4832 3.78228V10.0264C38.4832 10.2696 38.3946 10.5045 38.234 10.687L29.2268 20.9237C28.7133 21.5074 29.0327 22.4347 29.784 22.6345C32.286 23.2999 34.3763 24.3599 36.0457 25.8234C39.1267 28.5247 40.6682 32.0026 40.6682 36.2291C40.6682 38.9716 39.9451 41.5521 38.5033 43.9649L38.5018 43.9674C37.0512 46.3483 34.8354 48.2729 31.8762 49.7491C28.9005 51.2334 25.1108 51.9648 20.5257 51.9648C17.1727 51.9648 13.8433 51.5295 10.538 50.6593ZM27.7967 22.5491C27.625 22.5192 27.5506 22.3125 27.6657 22.1817L37.8926 10.5587C38.0532 10.3762 38.1418 10.1413 38.1418 9.89816V4.12288C38.1418 3.5706 37.6941 3.12288 37.1418 3.12288H5.6848C5.13252 3.12288 4.6848 3.57059 4.6848 4.12288V10.9785C4.6848 11.5308 5.13252 11.9785 5.6848 11.9785H22.8007C23.6623 11.9785 24.1206 12.9955 23.5497 13.641L15.4508 22.7983C15.2891 22.9811 15.1999 23.2167 15.1999 23.4608V29.3708C15.1999 29.9231 15.6476 30.3708 16.1999 30.3708H20.2526C23.3934 30.3708 25.6694 30.8931 27.0805 31.9376C28.4916 32.9821 29.1972 34.4126 29.1972 36.2291C29.1972 38.1365 28.4006 39.6351 26.8074 40.7251C25.2142 41.815 23.0293 42.3599 20.2526 42.3599C17.7945 42.3599 15.3592 41.9739 12.9466 41.2019C10.6573 40.4693 8.63438 39.4913 6.8779 38.268C6.72921 38.1645 6.52233 38.2143 6.44011 38.3757L2.68464 45.7502C2.46053 46.1902 2.58979 46.7302 3.0026 47.0012C5.1391 48.4042 7.67994 49.5138 10.6251 50.33C13.9025 51.1928 17.2027 51.6242 20.5257 51.6242C25.0776 51.6242 28.8103 50.8976 31.7235 49.4444C34.6368 47.9912 36.799 46.1065 38.2101 43.7905C39.6212 41.429 40.3268 38.9085 40.3268 36.2291C40.3268 32.0965 38.8246 28.7133 35.8203 26.0793C33.7964 24.3049 31.1219 23.1282 27.7967 22.5491ZM55.2233 49.053L55.2202 49.0511C52.0646 47.0603 49.5888 44.1931 47.7892 40.4641C45.9863 36.7285 45.0925 32.2247 45.0925 26.9648C45.0925 21.705 45.9863 17.2012 47.7892 13.4656C49.5888 9.73662 52.065 6.89132 55.2219 4.94568C58.3752 2.95677 61.9438 1.96484 65.9177 1.96484C69.9359 1.96484 73.5053 2.95616 76.6146 4.94632C79.771 6.89195 82.2469 9.73703 84.0463 13.4656C85.8491 17.2012 86.743 21.705 86.743 26.9648C86.743 32.2247 85.8491 36.7285 84.0463 40.4641C82.2467 44.1931 79.7708 47.0603 76.6153 49.0511L76.6141 49.0518C73.5046 50.9965 69.9354 51.9648 65.9177 51.9648C61.9447 51.9648 58.3766 50.9961 55.2233 49.053ZM76.4328 5.2346C73.383 3.28183 69.878 2.30544 65.9177 2.30544C62.003 2.30544 58.498 3.28183 55.4027 5.2346C52.3073 7.14195 49.872 9.93487 48.0968 13.6133C46.3215 17.2918 45.4339 21.7423 45.4339 26.9648C45.4339 32.1874 46.3215 36.6379 48.0968 40.3163C49.872 43.9948 52.3073 46.8104 55.4027 48.7632C58.498 50.6706 62.003 51.6242 65.9177 51.6242C69.878 51.6242 73.383 50.6706 76.4328 48.7632C79.5281 46.8104 81.9634 43.9948 83.7387 40.3163C85.514 36.6379 86.4016 32.1874 86.4016 26.9648C86.4016 21.7423 85.514 17.2918 83.7387 13.6133C81.9634 9.93487 79.5281 7.14195 76.4328 5.2346ZM70.56 40.4531L70.5622 40.4515C71.9005 39.4609 72.9603 37.8713 73.7198 35.6427L73.7208 35.6398L73.7218 35.6369C74.523 33.4166 74.9306 30.5304 74.9306 26.9648C74.9306 23.3993 74.523 20.513 73.7218 18.2927L73.7208 18.2899L73.7198 18.287C72.9603 16.0583 71.9005 14.4688 70.5622 13.4782L70.56 13.4766L70.5579 13.4749C69.257 12.4799 67.7157 11.9785 65.9177 11.9785C64.1683 11.9785 62.625 12.4783 61.2755 13.4765C59.9804 14.4679 58.92 16.0594 58.1147 18.2898C57.358 20.5119 56.9731 23.3994 56.9731 26.9648C56.9731 30.5303 57.358 33.4178 58.1147 35.6399C58.92 37.8703 59.9804 39.4618 61.2755 40.4532C62.625 41.4514 64.1683 41.9512 65.9177 41.9512C67.7157 41.9512 69.257 41.4497 70.5579 40.4548L70.56 40.4531ZM61.0699 40.7251C59.7043 39.6806 58.6118 38.023 57.7925 35.7523C57.0186 33.4816 56.6317 30.5525 56.6317 26.9648C56.6317 23.3772 57.0186 20.448 57.7925 18.1774C58.6118 15.9067 59.7043 14.2491 61.0699 13.2046C62.481 12.1601 64.097 11.6379 65.9177 11.6379C67.784 11.6379 69.4 12.1601 70.7656 13.2046C72.1767 14.2491 73.2692 15.9067 74.043 18.1774C74.8624 20.448 75.272 23.3772 75.272 26.9648C75.272 30.5525 74.8624 33.4816 74.043 35.7523C73.2692 38.023 72.1767 39.6806 70.7656 40.7251C69.4 41.7696 67.784 42.2918 65.9177 42.2918C64.097 42.2918 62.481 41.7696 61.0699 40.7251Z"/>
</mask>
<path fill-rule="evenodd" clip-rule="evenodd" d="M10.538 50.6593L10.5337 50.6582C7.22553 49.7413 4.41034 48.4544 2.09553 46.7917C1.95899 46.6936 1.9145 46.5105 1.99079 46.3607L6.29207 37.9145C6.3873 37.7275 6.62698 37.6696 6.79702 37.7926C8.58511 39.086 10.6685 40.1152 13.0509 40.8776C15.4308 41.6392 17.831 42.0193 20.2526 42.0193C22.9892 42.0193 25.0978 41.4816 26.6143 40.4442C28.1158 39.417 28.8558 38.0228 28.8558 36.2291C28.8558 34.5159 28.1978 33.1887 26.8771 32.2111C25.5556 31.2329 23.371 30.7114 20.2526 30.7114H15.8585C15.3062 30.7114 14.8585 30.2637 14.8585 29.7114V23.332C14.8585 23.0879 14.9477 22.8523 15.1094 22.6695L22.7932 13.9816C23.364 13.3361 22.9058 12.3191 22.0441 12.3191H5.3434C4.79112 12.3191 4.3434 11.8713 4.3434 11.3191V3.78228C4.3434 3.23 4.79112 2.78228 5.3434 2.78228H37.4832C38.0355 2.78228 38.4832 3.23 38.4832 3.78228V10.0264C38.4832 10.2696 38.3946 10.5045 38.234 10.687L29.2268 20.9237C28.7133 21.5074 29.0327 22.4347 29.784 22.6345C32.286 23.2999 34.3763 24.3599 36.0457 25.8234C39.1267 28.5247 40.6682 32.0026 40.6682 36.2291C40.6682 38.9716 39.9451 41.5521 38.5033 43.9649L38.5018 43.9674C37.0512 46.3483 34.8354 48.2729 31.8762 49.7491C28.9005 51.2334 25.1108 51.9648 20.5257 51.9648C17.1727 51.9648 13.8433 51.5295 10.538 50.6593ZM27.7967 22.5491C27.625 22.5192 27.5506 22.3125 27.6657 22.1817L37.8926 10.5587C38.0532 10.3762 38.1418 10.1413 38.1418 9.89816V4.12288C38.1418 3.5706 37.6941 3.12288 37.1418 3.12288H5.6848C5.13252 3.12288 4.6848 3.57059 4.6848 4.12288V10.9785C4.6848 11.5308 5.13252 11.9785 5.6848 11.9785H22.8007C23.6623 11.9785 24.1206 12.9955 23.5497 13.641L15.4508 22.7983C15.2891 22.9811 15.1999 23.2167 15.1999 23.4608V29.3708C15.1999 29.9231 15.6476 30.3708 16.1999 30.3708H20.2526C23.3934 30.3708 25.6694 30.8931 27.0805 31.9376C28.4916 32.9821 29.1972 34.4126 29.1972 36.2291C29.1972 38.1365 28.4006 39.6351 26.8074 40.7251C25.2142 41.815 23.0293 42.3599 20.2526 42.3599C17.7945 42.3599 15.3592 41.9739 12.9466 41.2019C10.6573 40.4693 8.63438 39.4913 6.8779 38.268C6.72921 38.1645 6.52233 38.2143 6.44011 38.3757L2.68464 45.7502C2.46053 46.1902 2.58979 46.7302 3.0026 47.0012C5.1391 48.4042 7.67994 49.5138 10.6251 50.33C13.9025 51.1928 17.2027 51.6242 20.5257 51.6242C25.0776 51.6242 28.8103 50.8976 31.7235 49.4444C34.6368 47.9912 36.799 46.1065 38.2101 43.7905C39.6212 41.429 40.3268 38.9085 40.3268 36.2291C40.3268 32.0965 38.8246 28.7133 35.8203 26.0793C33.7964 24.3049 31.1219 23.1282 27.7967 22.5491ZM55.2233 49.053L55.2202 49.0511C52.0646 47.0603 49.5888 44.1931 47.7892 40.4641C45.9863 36.7285 45.0925 32.2247 45.0925 26.9648C45.0925 21.705 45.9863 17.2012 47.7892 13.4656C49.5888 9.73662 52.065 6.89132 55.2219 4.94568C58.3752 2.95677 61.9438 1.96484 65.9177 1.96484C69.9359 1.96484 73.5053 2.95616 76.6146 4.94632C79.771 6.89195 82.2469 9.73703 84.0463 13.4656C85.8491 17.2012 86.743 21.705 86.743 26.9648C86.743 32.2247 85.8491 36.7285 84.0463 40.4641C82.2467 44.1931 79.7708 47.0603 76.6153 49.0511L76.6141 49.0518C73.5046 50.9965 69.9354 51.9648 65.9177 51.9648C61.9447 51.9648 58.3766 50.9961 55.2233 49.053ZM76.4328 5.2346C73.383 3.28183 69.878 2.30544 65.9177 2.30544C62.003 2.30544 58.498 3.28183 55.4027 5.2346C52.3073 7.14195 49.872 9.93487 48.0968 13.6133C46.3215 17.2918 45.4339 21.7423 45.4339 26.9648C45.4339 32.1874 46.3215 36.6379 48.0968 40.3163C49.872 43.9948 52.3073 46.8104 55.4027 48.7632C58.498 50.6706 62.003 51.6242 65.9177 51.6242C69.878 51.6242 73.383 50.6706 76.4328 48.7632C79.5281 46.8104 81.9634 43.9948 83.7387 40.3163C85.514 36.6379 86.4016 32.1874 86.4016 26.9648C86.4016 21.7423 85.514 17.2918 83.7387 13.6133C81.9634 9.93487 79.5281 7.14195 76.4328 5.2346ZM70.56 40.4531L70.5622 40.4515C71.9005 39.4609 72.9603 37.8713 73.7198 35.6427L73.7208 35.6398L73.7218 35.6369C74.523 33.4166 74.9306 30.5304 74.9306 26.9648C74.9306 23.3993 74.523 20.513 73.7218 18.2927L73.7208 18.2899L73.7198 18.287C72.9603 16.0583 71.9005 14.4688 70.5622 13.4782L70.56 13.4766L70.5579 13.4749C69.257 12.4799 67.7157 11.9785 65.9177 11.9785C64.1683 11.9785 62.625 12.4783 61.2755 13.4765C59.9804 14.4679 58.92 16.0594 58.1147 18.2898C57.358 20.5119 56.9731 23.3994 56.9731 26.9648C56.9731 30.5303 57.358 33.4178 58.1147 35.6399C58.92 37.8703 59.9804 39.4618 61.2755 40.4532C62.625 41.4514 64.1683 41.9512 65.9177 41.9512C67.7157 41.9512 69.257 41.4497 70.5579 40.4548L70.56 40.4531ZM61.0699 40.7251C59.7043 39.6806 58.6118 38.023 57.7925 35.7523C57.0186 33.4816 56.6317 30.5525 56.6317 26.9648C56.6317 23.3772 57.0186 20.448 57.7925 18.1774C58.6118 15.9067 59.7043 14.2491 61.0699 13.2046C62.481 12.1601 64.097 11.6379 65.9177 11.6379C67.784 11.6379 69.4 12.1601 70.7656 13.2046C72.1767 14.2491 73.2692 15.9067 74.043 18.1774C74.8624 20.448 75.272 23.3772 75.272 26.9648C75.272 30.5525 74.8624 33.4816 74.043 35.7523C73.2692 38.023 72.1767 39.6806 70.7656 40.7251C69.4 41.7696 67.784 42.2918 65.9177 42.2918C64.097 42.2918 62.481 41.7696 61.0699 40.7251Z" fill="#FFAD00"/>
<path fill-rule="evenodd" clip-rule="evenodd" d="M10.538 50.6593L10.5337 50.6582C7.22553 49.7413 4.41034 48.4544 2.09553 46.7917C1.95899 46.6936 1.9145 46.5105 1.99079 46.3607L6.29207 37.9145C6.3873 37.7275 6.62698 37.6696 6.79702 37.7926C8.58511 39.086 10.6685 40.1152 13.0509 40.8776C15.4308 41.6392 17.831 42.0193 20.2526 42.0193C22.9892 42.0193 25.0978 41.4816 26.6143 40.4442C28.1158 39.417 28.8558 38.0228 28.8558 36.2291C28.8558 34.5159 28.1978 33.1887 26.8771 32.2111C25.5556 31.2329 23.371 30.7114 20.2526 30.7114H15.8585C15.3062 30.7114 14.8585 30.2637 14.8585 29.7114V23.332C14.8585 23.0879 14.9477 22.8523 15.1094 22.6695L22.7932 13.9816C23.364 13.3361 22.9058 12.3191 22.0441 12.3191H5.3434C4.79112 12.3191 4.3434 11.8713 4.3434 11.3191V3.78228C4.3434 3.23 4.79112 2.78228 5.3434 2.78228H37.4832C38.0355 2.78228 38.4832 3.23 38.4832 3.78228V10.0264C38.4832 10.2696 38.3946 10.5045 38.234 10.687L29.2268 20.9237C28.7133 21.5074 29.0327 22.4347 29.784 22.6345C32.286 23.2999 34.3763 24.3599 36.0457 25.8234C39.1267 28.5247 40.6682 32.0026 40.6682 36.2291C40.6682 38.9716 39.9451 41.5521 38.5033 43.9649L38.5018 43.9674C37.0512 46.3483 34.8354 48.2729 31.8762 49.7491C28.9005 51.2334 25.1108 51.9648 20.5257 51.9648C17.1727 51.9648 13.8433 51.5295 10.538 50.6593ZM27.7967 22.5491C27.625 22.5192 27.5506 22.3125 27.6657 22.1817L37.8926 10.5587C38.0532 10.3762 38.1418 10.1413 38.1418 9.89816V4.12288C38.1418 3.5706 37.6941 3.12288 37.1418 3.12288H5.6848C5.13252 3.12288 4.6848 3.57059 4.6848 4.12288V10.9785C4.6848 11.5308 5.13252 11.9785 5.6848 11.9785H22.8007C23.6623 11.9785 24.1206 12.9955 23.5497 13.641L15.4508 22.7983C15.2891 22.9811 15.1999 23.2167 15.1999 23.4608V29.3708C15.1999 29.9231 15.6476 30.3708 16.1999 30.3708H20.2526C23.3934 30.3708 25.6694 30.8931 27.0805 31.9376C28.4916 32.9821 29.1972 34.4126 29.1972 36.2291C29.1972 38.1365 28.4006 39.6351 26.8074 40.7251C25.2142 41.815 23.0293 42.3599 20.2526 42.3599C17.7945 42.3599 15.3592 41.9739 12.9466 41.2019C10.6573 40.4693 8.63438 39.4913 6.8779 38.268C6.72921 38.1645 6.52233 38.2143 6.44011 38.3757L2.68464 45.7502C2.46053 46.1902 2.58979 46.7302 3.0026 47.0012C5.1391 48.4042 7.67994 49.5138 10.6251 50.33C13.9025 51.1928 17.2027 51.6242 20.5257 51.6242C25.0776 51.6242 28.8103 50.8976 31.7235 49.4444C34.6368 47.9912 36.799 46.1065 38.2101 43.7905C39.6212 41.429 40.3268 38.9085 40.3268 36.2291C40.3268 32.0965 38.8246 28.7133 35.8203 26.0793C33.7964 24.3049 31.1219 23.1282 27.7967 22.5491ZM55.2233 49.053L55.2202 49.0511C52.0646 47.0603 49.5888 44.1931 47.7892 40.4641C45.9863 36.7285 45.0925 32.2247 45.0925 26.9648C45.0925 21.705 45.9863 17.2012 47.7892 13.4656C49.5888 9.73662 52.065 6.89132 55.2219 4.94568C58.3752 2.95677 61.9438 1.96484 65.9177 1.96484C69.9359 1.96484 73.5053 2.95616 76.6146 4.94632C79.771 6.89195 82.2469 9.73703 84.0463 13.4656C85.8491 17.2012 86.743 21.705 86.743 26.9648C86.743 32.2247 85.8491 36.7285 84.0463 40.4641C82.2467 44.1931 79.7708 47.0603 76.6153 49.0511L76.6141 49.0518C73.5046 50.9965 69.9354 51.9648 65.9177 51.9648C61.9447 51.9648 58.3766 50.9961 55.2233 49.053ZM76.4328 5.2346C73.383 3.28183 69.878 2.30544 65.9177 2.30544C62.003 2.30544 58.498 3.28183 55.4027 5.2346C52.3073 7.14195 49.872 9.93487 48.0968 13.6133C46.3215 17.2918 45.4339 21.7423 45.4339 26.9648C45.4339 32.1874 46.3215 36.6379 48.0968 40.3163C49.872 43.9948 52.3073 46.8104 55.4027 48.7632C58.498 50.6706 62.003 51.6242 65.9177 51.6242C69.878 51.6242 73.383 50.6706 76.4328 48.7632C79.5281 46.8104 81.9634 43.9948 83.7387 40.3163C85.514 36.6379 86.4016 32.1874 86.4016 26.9648C86.4016 21.7423 85.514 17.2918 83.7387 13.6133C81.9634 9.93487 79.5281 7.14195 76.4328 5.2346ZM70.56 40.4531L70.5622 40.4515C71.9005 39.4609 72.9603 37.8713 73.7198 35.6427L73.7208 35.6398L73.7218 35.6369C74.523 33.4166 74.9306 30.5304 74.9306 26.9648C74.9306 23.3993 74.523 20.513 73.7218 18.2927L73.7208 18.2899L73.7198 18.287C72.9603 16.0583 71.9005 14.4688 70.5622 13.4782L70.56 13.4766L70.5579 13.4749C69.257 12.4799 67.7157 11.9785 65.9177 11.9785C64.1683 11.9785 62.625 12.4783 61.2755 13.4765C59.9804 14.4679 58.92 16.0594 58.1147 18.2898C57.358 20.5119 56.9731 23.3994 56.9731 26.9648C56.9731 30.5303 57.358 33.4178 58.1147 35.6399C58.92 37.8703 59.9804 39.4618 61.2755 40.4532C62.625 41.4514 64.1683 41.9512 65.9177 41.9512C67.7157 41.9512 69.257 41.4497 70.5579 40.4548L70.56 40.4531ZM61.0699 40.7251C59.7043 39.6806 58.6118 38.023 57.7925 35.7523C57.0186 33.4816 56.6317 30.5525 56.6317 26.9648C56.6317 23.3772 57.0186 20.448 57.7925 18.1774C58.6118 15.9067 59.7043 14.2491 61.0699 13.2046C62.481 12.1601 64.097 11.6379 65.9177 11.6379C67.784 11.6379 69.4 12.1601 70.7656 13.2046C72.1767 14.2491 73.2692 15.9067 74.043 18.1774C74.8624 20.448 75.272 23.3772 75.272 26.9648C75.272 30.5525 74.8624 33.4816 74.043 35.7523C73.2692 38.023 72.1767 39.6806 70.7656 40.7251C69.4 41.7696 67.784 42.2918 65.9177 42.2918C64.097 42.2918 62.481 41.7696 61.0699 40.7251Z" stroke="#FFAD00" stroke-width="2" mask="url(#path-1-outside-1_92_534)"/>
</svg>
