<svg width="51" height="51" viewBox="0 0 51 51" fill="none" xmlns="http://www.w3.org/2000/svg">
<rect x="0.25" y="0.5" width="50" height="50" rx="25" fill="#232323"/>
<path d="M35.4551 19.0499C31.865 13.4998 24.5352 11.8498 18.8509 15.2998C13.3161 18.7499 11.5211 26.2499 15.1112 31.8L15.4104 32.25L14.2137 36.75L18.7013 35.55L19.1501 35.85C21.0947 36.9 23.1889 37.5 25.2832 37.5C27.527 37.5 29.7708 36.9 31.7154 35.7C37.2502 32.1 38.8956 24.7499 35.4551 19.0499ZM32.3138 30.5999C31.7154 31.5 30.9675 32.1 29.9204 32.25C29.322 32.25 28.5741 32.55 25.5823 31.35C23.0393 30.1499 20.9451 28.1999 19.4492 25.9499C18.5517 24.8999 18.1029 23.5499 17.9534 22.1999C17.9534 20.9999 18.4021 19.9499 19.1501 19.1999C19.4492 18.8999 19.7484 18.7499 20.0476 18.7499H20.7955C21.0947 18.7499 21.3939 18.7499 21.5435 19.3499C21.8426 20.0999 22.5906 21.8999 22.5906 22.0499C22.7402 22.1999 22.7402 22.4999 22.5906 22.6499C22.7402 22.9499 22.5906 23.2499 22.441 23.3999C22.2914 23.5499 22.1418 23.8499 21.9922 23.9999C21.6931 24.1499 21.5435 24.4499 21.6931 24.7499C22.2914 25.6499 23.0393 26.5499 23.7873 27.2999C24.6848 28.0499 25.5823 28.6499 26.6294 29.0999C26.9286 29.2499 27.2278 29.2499 27.3774 28.9499C27.527 28.6499 28.2749 27.8999 28.5741 27.5999C28.8733 27.2999 29.0229 27.2999 29.322 27.4499L31.7154 28.6499C32.0146 28.7999 32.3138 28.9499 32.4634 29.0999C32.613 29.5499 32.613 30.1499 32.3138 30.5999Z" fill="white"/>
</svg>
