<svg width="50" height="50" viewBox="0 0 50 50" fill="none" xmlns="http://www.w3.org/2000/svg">
<rect width="50" height="50" rx="25" fill="#232323"/>
<g clip-path="url(#clip0_122_525)">
<path d="M36.4849 18.8166C36.1968 17.7152 35.3524 16.847 34.2815 16.5504C32.3252 16 24.4997 16 24.4997 16C24.4997 16 16.6745 16 14.7182 16.5296C13.6679 16.8258 12.8029 17.7154 12.5148 18.8166C12 20.8282 12 25 12 25C12 25 12 29.1929 12.5148 31.1834C12.8032 32.2846 13.6473 33.1529 14.7184 33.4494C16.6951 34 24.5 34 24.5 34C24.5 34 32.3252 34 34.2815 33.4704C35.3525 33.174 36.1968 32.3058 36.4852 31.2046C36.9999 29.1928 36.9999 25.0212 36.9999 25.0212C36.9999 25.0212 37.0205 20.8281 36.4849 18.8166ZM22.0082 28.8541V21.1459L28.5155 25L22.0082 28.8541Z" fill="white"/>
</g>
<defs>
<clipPath id="clip0_122_525">
<rect width="25" height="25" fill="white" transform="translate(12.5 12.5)"/>
</clipPath>
</defs>
</svg>
