<svg width="26" height="26" viewBox="0 0 26 26" fill="none" xmlns="http://www.w3.org/2000/svg">
<g clip-path="url(#clip0_122_529)">
<path d="M24.4849 6.81656C24.1968 5.71519 23.3524 4.84701 22.2815 4.55044C20.3252 4 12.4997 4 12.4997 4C12.4997 4 4.67454 4 2.71821 4.52959C1.66793 4.82584 0.802931 5.7154 0.514845 6.81656C0 8.82816 0 13 0 13C0 13 0 17.1929 0.514845 19.1834C0.803205 20.2846 1.64735 21.1529 2.71836 21.4494C4.69513 22 12.5 22 12.5 22C12.5 22 20.3252 22 22.2815 21.4704C23.3525 21.174 24.1968 20.3058 24.4852 19.2046C24.9999 17.1928 24.9999 13.0212 24.9999 13.0212C24.9999 13.0212 25.0205 8.82812 24.4849 6.81656ZM10.0082 16.8541V9.14586L16.5155 13L10.0082 16.8541Z" fill="white"/>
</g>
<defs>
<clipPath id="clip0_122_529">
<rect width="25" height="25" fill="white" transform="translate(0.5 0.5)"/>
</clipPath>
</defs>
</svg>
