<svg width="21" height="20" viewBox="0 0 21 20" fill="none" xmlns="http://www.w3.org/2000/svg">
<path d="M18.8952 12.9713C17.6707 12.9713 16.4684 12.7894 15.3291 12.4317C14.7708 12.2508 14.0845 12.4168 13.7438 12.7492L11.495 14.3619C8.88701 13.0394 7.28056 11.5138 5.90743 9.0548L7.55509 6.9741C7.98316 6.56798 8.1367 5.97472 7.95274 5.41808C7.57462 4.33003 7.38253 3.1884 7.38253 2.02465C7.38259 1.18395 6.66264 0.5 5.77775 0.5H2.10484C1.21995 0.5 0.5 1.18395 0.5 2.0246C0.5 11.6607 8.75196 19.5 18.8952 19.5C19.7801 19.5 20.5 18.8161 20.5 17.9754V14.4959C20.4999 13.6553 19.78 12.9713 18.8952 12.9713Z" fill="white"/>
</svg>
