<svg width="24" height="48" viewBox="0 0 24 48" fill="none" xmlns="http://www.w3.org/2000/svg">
<circle cx="12" cy="3" r="3" fill="#FFAD00"/>
<path d="M10.9393 47.0607C11.5251 47.6464 12.4749 47.6464 13.0607 47.0607L22.6066 37.5147C23.1924 36.9289 23.1924 35.9792 22.6066 35.3934C22.0208 34.8076 21.0711 34.8076 20.4853 35.3934L12 43.8787L3.51472 35.3934C2.92893 34.8076 1.97919 34.8076 1.3934 35.3934C0.807611 35.9792 0.807611 36.9289 1.3934 37.5147L10.9393 47.0607ZM13.5 16C13.5 15.1716 12.8284 14.5 12 14.5C11.1716 14.5 10.5 15.1716 10.5 16H13.5ZM13.5 46L13.5 16H10.5L10.5 46H13.5Z" fill="white"/>
</svg>
