<svg width="212" height="212" viewBox="0 0 212 212" fill="none" xmlns="http://www.w3.org/2000/svg">
<path d="M197.967 116.188L197.761 119.003L196.884 118.938C195.728 118.854 194.829 118.588 194.186 118.143C193.546 117.698 193.112 117.016 192.882 116.099C192.652 115.181 192.594 113.953 192.707 112.414C192.8 111.144 192.995 110.119 193.29 109.338C193.589 108.56 194.044 107.957 194.657 107.529C195.273 107.101 196.089 106.823 197.107 106.695C198.125 106.571 199.445 106.568 201.069 106.688C202.857 106.819 204.266 107.102 205.295 107.536C206.324 107.974 207.057 108.66 207.494 109.593C207.935 110.529 208.095 111.809 207.976 113.432C207.858 115.042 207.58 116.267 207.143 117.107C206.706 117.949 206.108 118.519 205.348 118.816C204.589 119.116 203.59 119.263 202.354 119.257L202.559 116.466C203.351 116.476 203.94 116.393 204.325 116.219C204.713 116.049 204.988 115.737 205.152 115.286C205.319 114.838 205.436 114.16 205.502 113.251C205.571 112.309 205.501 111.607 205.29 111.144C205.079 110.682 204.624 110.337 203.926 110.109C203.231 109.885 202.114 109.717 200.575 109.604C199.485 109.523 198.601 109.508 197.925 109.556C197.252 109.608 196.724 109.742 196.339 109.958C195.954 110.175 195.675 110.486 195.502 110.891C195.328 111.299 195.216 111.854 195.164 112.555C195.099 113.448 195.108 114.141 195.193 114.633C195.28 115.129 195.468 115.49 195.755 115.717C196.041 115.944 196.466 116.078 197.027 116.119L197.967 116.188Z" fill="#154889"/>
<path d="M201.82 124.497L197.856 123.631L197.728 124.217L201.064 127.955L200.453 130.751L196.448 126.047L190.063 129.214L190.707 126.266L196.048 123.85L196.177 123.263L191.583 122.259L192.117 119.817L202.354 122.055L201.82 124.497Z" fill="#154889"/>
<path d="M187.335 137.103L188.623 137.777L188.643 137.722C188.275 137.358 188.033 136.992 187.917 136.622C187.8 136.251 187.778 135.86 187.85 135.446C187.921 135.036 188.066 134.526 188.284 133.916C188.585 133.076 188.929 132.43 189.316 131.978C189.702 131.525 190.168 131.253 190.713 131.161C191.258 131.069 191.907 131.158 192.661 131.428C193.286 131.652 193.778 131.904 194.137 132.185C194.496 132.469 194.738 132.8 194.866 133.177C194.995 133.559 195.024 134.006 194.95 134.52C194.88 135.034 194.713 135.662 194.447 136.404C194.136 137.271 193.818 137.859 193.493 138.168C193.17 138.481 192.738 138.665 192.196 138.72L192.157 138.83L193.83 139.429C194.366 139.621 194.802 139.703 195.137 139.675C195.472 139.646 195.748 139.499 195.964 139.234C196.183 138.97 196.393 138.558 196.594 137.997C196.848 137.286 196.922 136.761 196.816 136.422C196.708 136.086 196.367 135.816 195.794 135.61L196.644 133.238C197.238 133.472 197.697 133.764 198.021 134.115C198.346 134.47 198.551 134.869 198.635 135.31C198.722 135.753 198.72 136.226 198.63 136.73C198.542 137.234 198.383 137.808 198.153 138.452C197.781 139.491 197.402 140.302 197.016 140.887C196.632 141.476 196.117 141.862 195.471 142.045C194.826 142.233 193.998 142.145 192.987 141.783L186.492 139.456L187.335 137.103ZM190.29 138.162C190.866 138.368 191.317 138.346 191.642 138.096C191.965 137.849 192.288 137.276 192.61 136.378C192.797 135.854 192.896 135.428 192.907 135.1C192.919 134.776 192.84 134.514 192.669 134.315C192.502 134.116 192.228 133.949 191.848 133.813C191.302 133.618 190.865 133.627 190.536 133.841C190.206 134.058 189.908 134.536 189.644 135.275C189.34 136.123 189.226 136.764 189.303 137.196C189.382 137.632 189.711 137.954 190.29 138.162Z" fill="#154889"/>
<path d="M181.468 149.56L182.611 147.337L187.466 149.831C187.107 149.405 186.945 148.919 186.98 148.373C187.016 147.832 187.23 147.182 187.619 146.424C188.022 145.639 188.446 145.059 188.892 144.684C189.34 144.31 189.832 144.121 190.37 144.115C190.905 144.112 191.516 144.287 192.203 144.639L195.048 146.1L193.905 148.324L191.152 146.91C190.79 146.724 190.494 146.629 190.266 146.625C190.036 146.624 189.818 146.728 189.612 146.937C189.407 147.15 189.172 147.514 188.908 148.03C188.525 148.774 188.352 149.343 188.387 149.738C188.422 150.133 188.697 150.463 189.212 150.728L191.949 152.133L190.806 154.357L181.468 149.56Z" fill="#154889"/>
<path d="M176.522 157.007L177.595 157.989L177.628 157.941C177.366 157.495 177.226 157.079 177.208 156.691C177.191 156.303 177.27 155.919 177.445 155.538C177.619 155.16 177.889 154.704 178.257 154.17C178.763 153.436 179.261 152.899 179.751 152.561C180.241 152.223 180.761 152.079 181.311 152.13C181.861 152.181 182.466 152.433 183.125 152.888C183.672 153.264 184.083 153.635 184.359 153.998C184.632 154.364 184.782 154.746 184.808 155.144C184.836 155.546 184.748 155.986 184.546 156.463C184.346 156.942 184.023 157.506 183.576 158.155C183.053 158.914 182.595 159.4 182.202 159.616C181.809 159.835 181.344 159.902 180.806 159.816L180.74 159.913L182.203 160.921C182.672 161.245 183.073 161.435 183.404 161.494C183.736 161.552 184.04 161.481 184.316 161.28C184.596 161.081 184.904 160.737 185.242 160.246C185.671 159.624 185.877 159.136 185.861 158.78C185.842 158.428 185.583 158.079 185.082 157.734L186.511 155.659C187.025 156.037 187.394 156.437 187.617 156.86C187.841 157.287 187.936 157.724 187.904 158.172C187.875 158.623 187.752 159.079 187.535 159.543C187.321 160.008 187.02 160.522 186.633 161.085C186.006 161.994 185.432 162.681 184.909 163.147C184.387 163.618 183.791 163.859 183.119 163.87C182.447 163.886 181.67 163.589 180.785 162.98L175.104 159.066L176.522 157.007ZM179.107 158.788C179.611 159.135 180.052 159.23 180.43 159.071C180.807 158.915 181.265 158.445 181.806 157.659C182.122 157.201 182.327 156.814 182.421 156.5C182.516 156.19 182.507 155.917 182.393 155.68C182.282 155.445 182.06 155.214 181.728 154.984C181.251 154.656 180.826 154.553 180.453 154.675C180.078 154.8 179.668 155.186 179.223 155.832C178.711 156.574 178.437 157.164 178.401 157.602C178.365 158.044 178.601 158.439 179.107 158.788Z" fill="#154889"/>
<path d="M171.986 162.721L178.366 168.398L180.602 165.885L182.05 167.174L175.918 174.064L174.47 172.775L176.704 170.266L170.324 164.588L171.986 162.721Z" fill="#154889"/>
<path d="M166.697 168.493L173.619 176.386L171.739 178.034L169.103 175.028L166.471 177.336C165.749 177.969 165.011 178.261 164.258 178.212C163.506 178.165 162.77 177.73 162.049 176.908C161.332 176.091 160.997 175.299 161.045 174.534C161.091 173.771 161.471 173.077 162.185 172.45L166.697 168.493ZM167.902 173.658L166.018 171.511L164.139 173.159C163.737 173.511 163.516 173.844 163.475 174.157C163.431 174.473 163.588 174.835 163.947 175.243C164.314 175.662 164.648 175.867 164.948 175.859C165.25 175.854 165.609 175.669 166.022 175.307L167.902 173.658Z" fill="#154889"/>
<path d="M157.403 188.888L155.326 185.402L154.81 185.709L154.362 190.699L151.903 192.164L152.6 186.025L145.924 183.529L148.516 181.985L153.931 184.233L154.447 183.925L152.04 179.885L154.188 178.606L159.551 187.608L157.403 188.888Z" fill="#154889"/>
<path d="M138.158 186.949L138.54 188.352L138.594 188.329C138.61 187.812 138.714 187.385 138.907 187.048C139.099 186.711 139.371 186.429 139.723 186.2C140.072 185.973 140.544 185.733 141.14 185.478C141.96 185.127 142.668 184.94 143.263 184.916C143.858 184.892 144.374 185.048 144.812 185.385C145.25 185.722 145.626 186.258 145.941 186.995C146.202 187.605 146.351 188.138 146.39 188.592C146.425 189.048 146.348 189.451 146.158 189.801C145.966 190.156 145.657 190.481 145.231 190.776C144.806 191.074 144.232 191.378 143.507 191.688C142.66 192.05 142.013 192.217 141.565 192.189C141.116 192.165 140.687 191.973 140.279 191.613L140.171 191.659L140.869 193.293C141.093 193.817 141.33 194.192 141.579 194.419C141.828 194.645 142.123 194.747 142.464 194.725C142.806 194.706 143.251 194.58 143.799 194.346C144.493 194.049 144.929 193.746 145.105 193.437C145.278 193.13 145.245 192.696 145.005 192.136L147.322 191.146C147.555 191.741 147.653 192.276 147.615 192.752C147.576 193.232 147.424 193.653 147.157 194.015C146.892 194.38 146.544 194.7 146.113 194.976C145.683 195.256 145.154 195.529 144.526 195.798C143.511 196.232 142.658 196.506 141.967 196.621C141.275 196.74 140.642 196.624 140.067 196.275C139.492 195.93 138.993 195.263 138.571 194.276L135.859 187.931L138.158 186.949ZM139.392 189.836C139.632 190.399 139.955 190.714 140.359 190.782C140.76 190.851 141.399 190.698 142.276 190.324C142.788 190.105 143.168 189.888 143.416 189.672C143.662 189.461 143.8 189.225 143.83 188.964C143.862 188.706 143.798 188.392 143.639 188.021C143.412 187.488 143.107 187.174 142.727 187.078C142.343 186.983 141.79 187.09 141.069 187.399C140.24 187.753 139.693 188.105 139.428 188.456C139.162 188.81 139.15 189.27 139.392 189.836Z" fill="#154889"/>
<path d="M131.309 189.356L133.668 197.564L136.901 196.635L137.436 198.498L128.571 201.045L128.036 199.182L131.265 198.254L128.906 190.047L131.309 189.356Z" fill="#154889"/>
<path d="M117.165 192.441L117.188 193.895L117.246 193.886C117.39 193.39 117.596 193.002 117.866 192.723C118.136 192.444 118.469 192.237 118.867 192.103C119.261 191.969 119.778 191.853 120.418 191.753C121.3 191.616 122.032 191.61 122.614 191.733C123.197 191.857 123.658 192.136 123.999 192.571C124.34 193.006 124.572 193.619 124.695 194.41C124.797 195.066 124.81 195.619 124.735 196.069C124.657 196.519 124.482 196.89 124.211 197.183C123.938 197.479 123.558 197.717 123.072 197.898C122.587 198.082 121.955 198.235 121.177 198.356C120.266 198.497 119.598 198.499 119.171 198.361C118.742 198.226 118.374 197.934 118.067 197.485L117.951 197.503L118.224 199.259C118.311 199.822 118.447 200.244 118.632 200.525C118.818 200.805 119.078 200.977 119.414 201.041C119.751 201.107 120.213 201.094 120.802 201.003C121.548 200.887 122.045 200.701 122.292 200.446C122.535 200.19 122.61 199.762 122.517 199.161L125.007 198.774C125.085 199.407 125.048 199.95 124.894 200.402C124.737 200.858 124.485 201.228 124.137 201.513C123.79 201.801 123.374 202.025 122.888 202.186C122.403 202.351 121.823 202.485 121.147 202.59C120.057 202.759 119.163 202.814 118.465 202.754C117.764 202.698 117.179 202.43 116.709 201.95C116.237 201.473 115.918 200.704 115.753 199.642L114.695 192.825L117.165 192.441ZM117.647 195.544C117.741 196.148 117.975 196.534 118.35 196.699C118.722 196.866 119.379 196.876 120.321 196.729C120.871 196.644 121.293 196.527 121.586 196.38C121.877 196.236 122.069 196.041 122.163 195.796C122.257 195.554 122.273 195.234 122.211 194.835C122.122 194.262 121.905 193.883 121.56 193.696C121.211 193.509 120.65 193.476 119.874 193.597C118.983 193.735 118.366 193.941 118.024 194.215C117.678 194.493 117.552 194.936 117.647 195.544Z" fill="#154889"/>
<path d="M111.845 203.549L103.106 203.717L102.904 193.241L105.403 193.192L105.568 201.731L109.352 201.658L109.249 196.337C109.236 195.676 109.326 195.093 109.518 194.588C109.707 194.086 110.01 193.69 110.428 193.398C110.842 193.107 111.36 192.955 111.982 192.943C112.681 192.93 113.195 192.954 113.521 193.016L113.558 194.896C113.319 194.861 113.106 194.846 112.917 194.849C112.442 194.859 112.119 194.993 111.948 195.254C111.777 195.518 111.698 195.938 111.709 196.514L111.845 203.549Z" fill="#154889"/>
<path d="M99.7002 198.374C99.541 199.745 99.2715 200.795 98.8919 201.525C98.509 202.254 97.9474 202.744 97.207 202.995C96.4635 203.246 95.4514 203.298 94.171 203.149C92.8938 203.001 91.9188 202.719 91.2461 202.303C90.5735 201.887 90.1329 201.279 89.9244 200.478C89.7123 199.68 89.6857 198.597 89.8446 197.229C89.9621 196.217 90.143 195.38 90.3871 194.717C90.6313 194.054 90.9653 193.534 91.3892 193.157C91.8128 192.783 92.3509 192.538 93.0035 192.42C93.653 192.302 94.4583 192.296 95.4194 192.401C96.3668 192.511 97.1461 192.7 97.7573 192.967C98.3685 193.235 98.8342 193.599 99.1544 194.059C99.4742 194.522 99.6757 195.101 99.7589 195.795C99.8388 196.49 99.8193 197.349 99.7002 198.374ZM97.1587 198.079C97.271 197.112 97.2831 196.373 97.1951 195.861C97.1067 195.353 96.9079 194.991 96.5987 194.775C96.2895 194.558 95.8219 194.409 95.1957 194.326C94.5684 194.254 94.0763 194.287 93.7194 194.425C93.3621 194.567 93.0803 194.877 92.8741 195.355C92.6647 195.832 92.5036 196.555 92.3909 197.525C92.3061 198.256 92.2803 198.845 92.3137 199.291C92.3438 199.737 92.4353 200.091 92.5882 200.355C92.7412 200.619 92.9611 200.813 93.2481 200.938C93.5314 201.066 93.9136 201.161 94.3946 201.223C95.0187 201.296 95.5074 201.264 95.8607 201.128C96.2108 200.992 96.4872 200.687 96.6898 200.212C96.892 199.741 97.0483 199.03 97.1587 198.079Z" fill="#154889"/>
<path d="M79.8983 198.325L84.2194 199.339L86.1744 191.005L88.6083 191.576L86.215 201.778L79.46 200.193L79.8983 198.325Z" fill="#154889"/>
<path d="M74.0533 194.908L64.9994 191.158L65.5132 189.918L74.5672 193.668L74.0533 194.908Z" fill="#154889"/>
<path d="M51.3866 181.143L49.0336 179.585L49.519 178.852C50.1589 177.886 50.8304 177.232 51.5336 176.889C52.235 176.549 53.042 176.504 53.9546 176.753C54.8672 177.002 55.9667 177.553 57.2531 178.405C58.3143 179.108 59.113 179.779 59.6494 180.42C60.1813 181.061 60.4841 181.753 60.5576 182.497C60.6294 183.244 60.4717 184.092 60.0845 185.042C59.6946 185.99 59.0503 187.143 58.1515 188.5C57.1611 189.995 56.2245 191.085 55.3418 191.769C54.4564 192.452 53.4998 192.755 52.4722 192.68C51.44 192.605 50.2455 192.119 48.8885 191.22C47.5424 190.328 46.6104 189.486 46.0925 188.694C45.5719 187.901 45.3681 187.1 45.4813 186.292C45.5917 185.483 45.9523 184.541 46.5629 183.466L48.8956 185.01C48.4995 185.697 48.2831 186.251 48.2464 186.671C48.2053 187.093 48.3414 187.486 48.6549 187.85C48.9639 188.214 49.4983 188.648 50.2582 189.152C51.0452 189.673 51.6921 189.955 52.1987 189.998C52.7053 190.04 53.2287 189.813 53.7689 189.316C54.3046 188.82 54.9985 187.928 55.8505 186.642C56.4545 185.73 56.9009 184.967 57.1898 184.354C57.4741 183.742 57.6161 183.216 57.6157 182.774C57.6152 182.333 57.4809 181.937 57.2126 181.588C56.9416 181.236 56.513 180.867 55.9268 180.478C55.1804 179.984 54.5718 179.653 54.101 179.486C53.6256 179.319 53.2188 179.306 52.8806 179.445C52.5425 179.584 52.2179 179.888 51.907 180.358L51.3866 181.143Z" fill="#154889"/>
<path d="M42.3791 180.538L45.0657 177.497L44.6156 177.099L39.7262 178.194L37.5818 176.299L43.6404 175.091L43.9817 167.971L46.2432 169.969L45.7536 175.811L46.2037 176.209L49.317 172.685L51.1905 174.34L44.2527 182.193L42.3791 180.538Z" fill="#154889"/>
<path d="M38.3794 161.704L37.1644 162.503L37.2031 162.547C37.6993 162.402 38.1375 162.368 38.5176 162.446C38.8977 162.524 39.251 162.695 39.5774 162.959C39.9017 163.22 40.2774 163.594 40.7045 164.081C41.2926 164.751 41.6907 165.366 41.8986 165.924C42.1066 166.482 42.1185 167.021 41.9345 167.542C41.7504 168.063 41.3574 168.587 40.7553 169.115C40.2561 169.553 39.7965 169.861 39.3765 170.039C38.9545 170.214 38.5474 170.266 38.1553 170.194C37.7587 170.122 37.3538 169.929 36.9406 169.616C36.525 169.305 36.0575 168.854 35.5381 168.261C34.9307 167.569 34.5708 167.005 34.4586 166.571C34.3417 166.137 34.3908 165.67 34.6058 165.169L34.5285 165.081L33.1923 166.253C32.764 166.629 32.481 166.97 32.3432 167.277C32.2055 167.584 32.2 167.896 32.3268 168.214C32.4512 168.533 32.7098 168.917 33.1026 169.365C33.6006 169.932 34.0237 170.252 34.3719 170.323C34.718 170.392 35.1199 170.226 35.5776 169.824L37.2389 171.719C36.7463 172.125 36.268 172.384 35.8039 172.497C35.3352 172.609 34.8875 172.595 34.4607 172.454C34.0316 172.315 33.6188 172.083 33.2225 171.76C32.8237 171.439 32.399 171.021 31.9482 170.507C31.2206 169.677 30.6949 168.952 30.3711 168.331C30.0427 167.71 29.9553 167.072 30.1089 166.418C30.2579 165.763 30.7362 165.082 31.5438 164.373L36.731 159.824L38.3794 161.704ZM36.0189 163.774C35.5588 164.177 35.3593 164.582 35.4204 164.987C35.4794 165.39 35.8233 165.95 36.4522 166.667C36.8192 167.086 37.1437 167.379 37.4256 167.548C37.7029 167.716 37.9702 167.774 38.2274 167.721C38.4821 167.671 38.7612 167.513 39.0646 167.247C39.5003 166.865 39.7044 166.478 39.677 166.086C39.6474 165.692 39.374 165.2 38.8568 164.61C38.2622 163.932 37.7574 163.522 37.3423 163.38C36.9226 163.237 36.4815 163.368 36.0189 163.774Z" fill="#154889"/>
<path d="M30.3314 150.499L31.7195 152.579L27.1794 155.61C27.7264 155.503 28.2298 155.597 28.6895 155.893C29.1448 156.188 29.6091 156.69 30.0827 157.399C30.5725 158.133 30.8731 158.786 30.9846 159.357C31.0933 159.93 31.0196 160.453 30.7635 160.925C30.5056 161.395 30.0558 161.844 29.4142 162.272L26.7543 164.048L25.3661 161.969L27.9408 160.25C28.2792 160.024 28.5057 159.812 28.6202 159.615C28.7329 159.414 28.7481 159.173 28.6658 158.891C28.5789 158.609 28.3746 158.227 28.0529 157.745C27.5884 157.049 27.1751 156.62 26.8129 156.459C26.4508 156.298 26.0288 156.378 25.5469 156.7L22.9884 158.408L21.6003 156.328L30.3314 150.499Z" fill="#154889"/>
<path d="M26.242 142.592L24.8622 143.052L24.8882 143.104C25.4051 143.092 25.8371 143.172 26.1844 143.345C26.5316 143.518 26.8291 143.774 27.0766 144.113C27.3228 144.449 27.5896 144.907 27.877 145.487C28.2727 146.287 28.4992 146.983 28.5566 147.575C28.6139 148.168 28.4867 148.693 28.1748 149.148C27.8629 149.604 27.3481 150.01 26.6305 150.365C26.0353 150.66 25.512 150.839 25.0605 150.903C24.6075 150.963 24.2008 150.909 23.8404 150.738C23.4757 150.567 23.134 150.276 22.8154 149.867C22.4938 149.46 22.1583 148.903 21.8087 148.197C21.4 147.372 21.1973 146.735 21.2005 146.286C21.1994 145.837 21.3671 145.398 21.7036 144.969L21.6516 144.864L20.0588 145.653C19.5482 145.906 19.1869 146.163 18.9748 146.424C18.7627 146.685 18.6771 146.985 18.7179 147.325C18.7559 147.666 18.907 148.103 19.1713 148.637C19.5064 149.314 19.833 149.731 20.1512 149.89C20.4679 150.045 20.8991 149.988 21.4446 149.718L22.5625 151.976C21.982 152.241 21.4531 152.369 20.9756 152.358C20.4938 152.346 20.0648 152.217 19.6888 151.971C19.3098 151.726 18.9704 151.397 18.6707 150.982C18.3681 150.569 18.0651 150.056 17.7618 149.444C17.2722 148.455 16.9509 147.618 16.7978 146.935C16.6404 146.25 16.7201 145.611 17.0369 145.019C17.3493 144.425 17.9869 143.889 18.9496 143.413L25.1328 140.351L26.242 142.592ZM23.4282 143.985C22.8798 144.256 22.5829 144.596 22.5376 145.003C22.4909 145.408 22.6791 146.037 23.1023 146.892C23.3492 147.391 23.5873 147.758 23.8164 147.993C24.0411 148.227 24.2844 148.352 24.5464 148.368C24.8055 148.385 25.1159 148.304 25.4776 148.125C25.9969 147.867 26.2937 147.546 26.368 147.161C26.4409 146.772 26.3033 146.227 25.9552 145.523C25.5552 144.715 25.1729 144.189 24.8085 143.944C24.4397 143.698 23.9796 143.712 23.4282 143.985Z" fill="#154889"/>
<path d="M23.4316 135.804L15.3598 138.593L16.4584 141.772L14.6262 142.405L11.6142 133.687L13.4464 133.054L14.5434 136.23L22.6152 133.441L23.4316 135.804Z" fill="#154889"/>
<path d="M20.975 128.414L10.7023 130.577L10.1871 128.131L14.1003 127.307L13.3788 123.881C13.1809 122.941 13.2881 122.155 13.7005 121.523C14.1097 120.891 14.8494 120.462 15.9197 120.237C16.9836 120.013 17.8372 120.109 18.4805 120.526C19.1232 120.939 19.5424 121.611 19.7383 122.541L20.975 128.414ZM15.8825 126.931L18.6776 126.343L18.1624 123.896C18.0524 123.374 17.871 123.018 17.6181 122.828C17.3646 122.635 16.9719 122.595 16.4399 122.707C15.8952 122.822 15.5527 123.012 15.4124 123.278C15.2689 123.544 15.2539 123.947 15.3673 124.485L15.8825 126.931Z" fill="#154889"/>
<path d="M7.74139 110.598L11.7975 110.488L11.7813 109.888L7.64576 107.059L7.56846 104.199L12.5847 107.805L18.0238 103.198L18.1053 106.214L13.4994 109.841L13.5156 110.442L18.2161 110.315L18.2836 112.814L7.80893 113.097L7.74139 110.598Z" fill="#154889"/>
<path d="M18.8019 94.5353L17.3901 94.1865L17.384 94.2448C17.8275 94.5104 18.1498 94.8092 18.3508 95.1411C18.5517 95.4731 18.6664 95.8483 18.6946 96.2669C18.7232 96.6823 18.7039 97.2122 18.6366 97.8564C18.5439 98.7435 18.3634 99.4529 18.0951 99.9845C17.8269 100.516 17.4391 100.891 16.9319 101.11C16.4246 101.329 15.7728 101.396 14.9763 101.313C14.3159 101.244 13.7778 101.116 13.3621 100.929C12.9467 100.738 12.6322 100.474 12.4186 100.138C12.2021 99.7976 12.0685 99.3697 12.0176 98.8538C11.9636 98.3375 11.9774 97.6877 12.0593 96.9042C12.155 95.988 12.324 95.3412 12.5664 94.964C12.8058 94.5831 13.1821 94.3017 13.6954 94.1197L13.7076 94.0031L11.9398 93.8184C11.3733 93.7592 10.9305 93.7834 10.6116 93.8908C10.2928 93.9982 10.0599 94.2063 9.91313 94.5149C9.76309 94.8233 9.65712 95.2737 9.59522 95.8662C9.51675 96.6173 9.56965 97.1448 9.7539 97.4488C9.93849 97.7496 10.3335 97.9316 10.9389 97.9949L10.6771 100.501C10.0446 100.415 9.52939 100.24 9.1315 99.976C8.73072 99.7083 8.43713 99.3699 8.25075 98.961C8.06113 98.5517 7.95045 98.0918 7.9187 97.5811C7.88371 97.0702 7.90173 96.4747 7.97276 95.7949C8.08742 94.6973 8.26265 93.8188 8.49846 93.1594C8.73137 92.4965 9.14008 91.9991 9.72458 91.6674C10.3062 91.3322 11.1312 91.2203 12.1996 91.332L19.0617 92.0489L18.8019 94.5353ZM15.6792 94.2091C15.0706 94.1455 14.6382 94.2738 14.3822 94.594C14.1266 94.9109 13.9492 95.5437 13.8501 96.4923C13.7922 97.046 13.7973 97.4834 13.8652 97.8047C13.9301 98.1224 14.0692 98.3579 14.2823 98.5111C14.4922 98.6639 14.7978 98.7613 15.1993 98.8032C15.7756 98.8634 16.1981 98.7505 16.4669 98.4644C16.7361 98.175 16.9114 97.6402 16.9929 96.8599C17.0866 95.9631 17.0448 95.314 16.8675 94.9125C16.6872 94.5075 16.2911 94.273 15.6792 94.2091Z" fill="#154889"/>
<path d="M20.0489 87.2416L11.7346 85.2911L10.9662 88.5664L9.079 88.1237L11.1857 79.1438L13.0729 79.5866L12.3056 82.8572L20.6199 84.8077L20.0489 87.2416Z" fill="#154889"/>
<path d="M24.2176 73.4653L22.9367 72.7767L22.9163 72.8316C23.2799 73.1991 23.5178 73.5686 23.63 73.94C23.7422 74.3115 23.76 74.7035 23.6834 75.116C23.6079 75.5255 23.4575 76.0339 23.2322 76.6412C22.922 77.4774 22.5709 78.1197 22.1789 78.568C21.7869 79.0163 21.3181 79.2834 20.7725 79.3691C20.2268 79.4549 19.5786 79.3585 18.8278 79.08C18.2052 78.849 17.7158 78.5911 17.3597 78.3063C17.0047 78.0184 16.7656 77.6849 16.6424 77.3059C16.5172 76.9226 16.4941 76.4749 16.573 75.9625C16.6489 75.4491 16.8238 74.823 17.0978 74.0844C17.4182 73.2207 17.7426 72.6363 18.0711 72.3311C18.3977 72.0217 18.8321 71.8426 19.3745 71.7938L19.4152 71.6839L17.7489 71.0658C17.2148 70.8677 16.7799 70.781 16.4444 70.8058C16.1088 70.8306 15.8316 70.9743 15.6127 71.2368C15.3907 71.4982 15.1761 71.9082 14.969 72.4667C14.7063 73.1748 14.6264 73.6989 14.7294 74.0392C14.8334 74.3763 15.1708 74.6508 15.7416 74.8625L14.8653 77.2247C14.2739 76.9845 13.8183 76.6871 13.4985 76.3324C13.1768 75.9735 12.9765 75.5728 12.8976 75.1304C12.8157 74.6868 12.8227 74.2138 12.9189 73.7113C13.0119 73.2076 13.1774 72.6354 13.4151 71.9944C13.7989 70.9598 14.1869 70.1524 14.5792 69.5723C14.9695 68.988 15.489 68.6078 16.1376 68.4318C16.7843 68.2516 17.6112 68.3483 18.6183 68.7219L25.087 71.1214L24.2176 73.4653ZM21.2739 72.3734C20.7001 72.1606 20.2495 72.1774 19.9219 72.4239C19.5955 72.6674 19.2665 73.2363 18.9348 74.1305C18.7412 74.6524 18.6373 75.0774 18.6233 75.4055C18.6073 75.7294 18.6834 75.992 18.8518 76.1933C19.0171 76.3935 19.289 76.5638 19.6674 76.7042C20.2107 76.9057 20.648 76.9013 20.9795 76.6909C21.3121 76.4775 21.6149 76.0031 21.8877 75.2675C22.2013 74.4221 22.3221 73.783 22.2501 73.35C22.1761 72.9129 21.8507 72.5874 21.2739 72.3734Z" fill="#154889"/>
<path d="M17.211 63.1739L21.3476 55.4745L30.5782 60.4338L29.395 62.6361L21.872 58.5942L20.081 61.9277L24.7694 64.4467C25.3515 64.7594 25.8156 65.1233 26.1617 65.5384C26.5065 65.949 26.7035 66.4077 26.7527 66.9145C26.8034 67.4185 26.6816 67.9443 26.3874 68.492C26.0561 69.1085 25.7834 69.544 25.5691 69.7984L23.9131 68.9087C24.06 68.7178 24.1781 68.5393 24.2674 68.3729C24.4924 67.9543 24.5332 67.6067 24.3898 67.3301C24.2436 67.052 23.9167 66.7766 23.4092 66.5039L17.211 63.1739Z" fill="#154889"/>
<path d="M27.2306 55.7765C26.1115 54.9687 25.3263 54.2212 24.8748 53.534C24.4253 52.8441 24.2713 52.1147 24.4129 51.3457C24.5564 50.5741 25.0054 49.6657 25.7599 48.6205C26.5124 47.5779 27.2342 46.8644 27.9252 46.48C28.6163 46.0956 29.3622 46.0077 30.163 46.2165C30.9631 46.4206 31.9213 46.9257 33.0378 47.7316C33.8639 48.3279 34.5069 48.8944 34.9666 49.431C35.4264 49.9677 35.7173 50.5129 35.8394 51.0667C35.9589 51.6187 35.9107 52.2082 35.6949 52.8353C35.481 53.4597 35.0938 54.1658 34.5332 54.9535C33.975 55.7269 33.43 56.3151 32.8982 56.7181C32.3664 57.1211 31.8216 57.3501 31.264 57.4052C30.7036 57.4585 30.1 57.352 29.4531 57.0857C28.8082 56.8169 28.0673 56.3804 27.2306 55.7765ZM28.7281 53.7019C29.5173 54.2716 30.1567 54.6428 30.6463 54.8155C31.1332 54.9863 31.5464 54.9895 31.8859 54.8251C32.2254 54.6607 32.5839 54.3253 32.9615 53.819C33.3311 53.3069 33.5424 52.8613 33.5954 52.482C33.6457 52.1008 33.5128 51.7037 33.1966 51.2908C32.8823 50.8753 32.3293 50.3817 31.5374 49.8101C30.9409 49.3795 30.4397 49.07 30.0339 48.8814C29.6299 48.6901 29.2756 48.597 28.971 48.6019C28.6663 48.6068 28.3894 48.704 28.1402 48.8935C27.8903 49.0784 27.6208 49.3656 27.3316 49.7551C26.9639 50.2645 26.7532 50.7066 26.6995 51.0813C26.6477 51.4534 26.7795 51.8436 27.095 52.252C27.4078 52.6585 27.9522 53.1418 28.7281 53.7019Z" fill="#154889"/>
<path d="M36.8624 38.5066L33.8756 41.7898L40.2072 47.5498L38.5249 49.3991L30.7738 42.3478L35.4429 37.2153L36.8624 38.5066Z" fill="#154889"/>
<path d="M42.9314 34.763L50.6187 28.685L51.4515 29.7383L43.7642 35.8163L42.9314 34.763Z" fill="#154889"/>
<path d="M65.6316 21.7705L68.1325 20.4624L68.5398 21.2413C69.0769 22.2681 69.3257 23.1721 69.2861 23.9533C69.245 24.7315 68.895 25.4601 68.2362 26.139C67.5774 26.8179 66.5643 27.5149 65.1971 28.2301C64.0693 28.82 63.0955 29.1952 62.2758 29.3558C61.4575 29.512 60.7049 29.4428 60.0181 29.1481C59.3298 28.8505 58.6631 28.3029 58.0181 27.5051C57.3759 26.7059 56.6777 25.5851 55.9233 24.1429C55.092 22.5535 54.5898 21.2072 54.4168 20.1038C54.2466 18.9988 54.4427 18.0146 55.0049 17.1511C55.5686 16.2832 56.5715 15.4721 58.0137 14.7177C59.4444 13.9694 60.6316 13.5597 61.5752 13.4886C62.5218 13.4159 63.3213 13.6241 63.9738 14.113C64.6292 14.6005 65.2803 15.3712 65.9271 16.4252L63.4479 17.7219C63.038 17.0436 62.6576 16.5868 62.3068 16.3516C61.9573 16.1119 61.5476 16.0415 61.0777 16.1403C60.6091 16.2348 59.971 16.4933 59.1634 16.9157C58.3269 17.3532 57.7676 17.7835 57.4856 18.2065C57.2036 18.6296 57.1499 19.1977 57.3246 19.9108C57.5006 20.6196 57.9462 21.6576 58.6613 23.0249C59.1682 23.994 59.6204 24.7531 60.0177 25.302C60.4164 25.8466 60.8092 26.2252 61.196 26.438C61.5828 26.6508 61.994 26.7241 62.4296 26.6579C62.8681 26.5902 63.3989 26.3934 64.0219 26.0675C64.8151 25.6526 65.3987 25.2794 65.7727 24.9479C66.148 24.612 66.3564 24.2623 66.3978 23.899C66.4392 23.5357 66.3294 23.1046 66.0684 22.6056L65.6316 21.7705Z" fill="#154889"/>
<path d="M70.5949 14.1073L71.9488 17.9324L72.515 17.732L73.9321 12.9262L76.6295 11.9715L74.7442 17.8546L80.8024 21.61L77.9577 22.6168L73.0884 19.3523L72.5223 19.5527L74.0912 23.9854L71.7345 24.8195L68.2382 14.9415L70.5949 14.1073Z" fill="#154889"/>
<path d="M89.3683 19.6562L89.2673 18.2054L89.21 18.2175C89.0932 18.7211 88.9076 19.1195 88.6533 19.4125C88.399 19.7056 88.077 19.9298 87.6872 20.0851C87.3006 20.2397 86.7903 20.3837 86.1565 20.5172C85.2837 20.701 84.5531 20.7468 83.9648 20.6544C83.3765 20.5621 82.9006 20.3081 82.5369 19.8923C82.1732 19.4766 81.9089 18.8769 81.7439 18.0933C81.607 17.4435 81.5641 16.892 81.615 16.4388C81.6691 15.985 81.8236 15.6048 82.0784 15.2983C82.3357 14.988 82.7021 14.7295 83.1775 14.523C83.6523 14.3132 84.2751 14.1271 85.046 13.9648C85.9474 13.7749 86.6148 13.7375 87.0482 13.8525C87.4841 13.9636 87.8674 14.2355 88.198 14.6682L88.3127 14.6441L87.9464 12.9049C87.829 12.3474 87.6703 11.9334 87.4703 11.6628C87.2703 11.3923 87.0008 11.2344 86.662 11.1894C86.3225 11.1411 85.8613 11.1784 85.2784 11.3011C84.5394 11.4568 84.0535 11.6689 83.8206 11.9375C83.591 12.2054 83.5389 12.6372 83.6643 13.2328L81.1988 13.7521C81.0865 13.1237 81.095 12.5797 81.2244 12.12C81.3563 11.6564 81.5883 11.2732 81.9204 10.9704C82.2518 10.6644 82.6557 10.418 83.132 10.2312C83.6076 10.0413 84.1798 9.87583 84.8488 9.73496C85.9286 9.50754 86.8185 9.40496 87.5184 9.42721C88.2209 9.4456 88.8196 9.68211 89.3145 10.1367C89.812 10.5875 90.1714 11.3385 90.3928 12.3897L91.8146 19.141L89.3683 19.6562ZM88.7213 16.5839C88.5951 15.9851 88.3404 15.6129 87.9572 15.4674C87.5771 15.3213 86.9204 15.3464 85.9871 15.543C85.4424 15.6577 85.0276 15.7966 84.7426 15.9598C84.4601 16.1191 84.2786 16.3236 84.1982 16.5734C84.117 16.8201 84.1181 17.1409 84.2013 17.5358C84.3207 18.1028 84.5578 18.4704 84.9125 18.6385C85.2705 18.806 85.8333 18.8089 86.6009 18.6472C87.4833 18.4614 88.0883 18.2225 88.4161 17.9306C88.7463 17.6348 88.848 17.186 88.7213 16.5839Z" fill="#154889"/>
<path d="M103.14 18.098L100.647 18.2906L100.226 12.8479C100.052 13.3772 99.7229 13.7699 99.2399 14.026C98.7599 14.2786 98.0948 14.4378 97.2444 14.5035C96.3649 14.5715 95.6487 14.5142 95.0959 14.3317C94.5428 14.1459 94.123 13.8257 93.8365 13.3712C93.5532 12.9164 93.3818 12.3044 93.3224 11.5352L93.0759 8.34651L95.5684 8.15383L95.807 11.2403C95.8384 11.646 95.9123 11.9472 96.0287 12.1439C96.1484 12.3403 96.3511 12.4716 96.637 12.5376C96.9259 12.6002 97.3592 12.6091 97.9369 12.5645C98.771 12.5 99.347 12.3494 99.665 12.1126C99.983 11.8758 100.12 11.4685 100.075 10.8908L99.8379 7.8238L102.331 7.63113L103.14 18.098Z" fill="#154889"/>
<path d="M112.345 18.4045L112.622 16.977L112.564 16.9739C112.321 17.4301 112.038 17.767 111.717 17.9843C111.395 18.2016 111.026 18.3349 110.61 18.3841C110.196 18.4334 109.666 18.4406 109.019 18.4057C108.129 18.3575 107.411 18.2128 106.867 17.9714C106.322 17.7301 105.928 17.3616 105.685 16.8659C105.441 16.3703 105.341 15.7226 105.384 14.923C105.42 14.2599 105.521 13.7161 105.687 13.2915C105.857 12.8671 106.104 12.5398 106.43 12.3097C106.759 12.0764 107.179 11.9215 107.692 11.8449C108.205 11.7651 108.855 11.7464 109.641 11.789C110.561 11.8387 111.215 11.9751 111.604 12.1983C111.997 12.4184 112.297 12.7801 112.504 13.2836L112.621 13.2899L112.717 11.5152C112.748 10.9464 112.702 10.5054 112.578 10.1923C112.455 9.87919 112.236 9.65706 111.92 9.52589C111.605 9.39147 111.149 9.30818 110.555 9.27602C109.8 9.23524 109.276 9.31447 108.982 9.51371C108.691 9.71313 108.529 10.1168 108.496 10.7246L105.98 10.5885C106.034 9.95251 106.183 9.42919 106.427 9.01858C106.674 8.6049 106.997 8.29475 107.396 8.08813C107.796 7.87827 108.249 7.7447 108.758 7.68743C109.266 7.62691 109.862 7.61511 110.545 7.65202C111.647 7.7116 112.533 7.84265 113.203 8.04515C113.877 8.24459 114.394 8.62789 114.755 9.19506C115.118 9.75915 115.271 10.5775 115.213 11.6502L114.841 18.5395L112.345 18.4045ZM112.514 15.2695C112.547 14.6584 112.397 14.233 112.065 13.9933C111.735 13.7539 111.095 13.6084 110.142 13.5569C109.586 13.5268 109.15 13.5537 108.832 13.6376C108.518 13.7184 108.29 13.8691 108.148 14.0896C108.005 14.3069 107.923 14.617 107.902 15.0201C107.87 15.5986 108.004 16.015 108.304 16.2692C108.606 16.5235 109.149 16.6718 109.932 16.7142C110.833 16.7629 111.479 16.6886 111.871 16.4914C112.267 16.2911 112.481 15.8838 112.514 15.2695Z" fill="#154889"/>
<path d="M119.375 19.2262L120.878 10.8196L117.567 10.2272L117.908 8.31906L126.988 9.94313L126.646 11.8513L123.339 11.2598L121.836 19.6664L119.375 19.2262Z" fill="#154889"/>
<path d="M127.103 20.6867L130.231 10.6652L132.617 11.41L131.426 15.2275L134.768 16.2704C135.684 16.5565 136.318 17.0338 136.669 17.7025C137.02 18.368 137.033 19.2228 136.707 20.2669C136.383 21.3048 135.882 22.0027 135.205 22.3607C134.53 22.7196 133.739 22.7575 132.832 22.4743L127.103 20.6867ZM130.883 16.9661L130.032 19.6928L132.419 20.4376C132.928 20.5966 133.328 20.6121 133.616 20.484C133.908 20.3569 134.135 20.0338 134.297 19.5149C134.463 18.9835 134.464 18.5918 134.301 18.3396C134.139 18.0843 133.795 17.8747 133.27 17.7108L130.883 16.9661Z" fill="#154889"/>
<path d="M149.088 17.8023L147.194 21.3908L147.725 21.6711L152.219 19.4546L154.749 20.7902L149.146 23.3929L150.493 30.3923L147.824 28.9838L146.923 23.1912L146.392 22.9108L144.197 27.0693L141.986 25.9025L146.877 16.6354L149.088 17.8023Z" fill="#154889"/>
<path d="M157.837 35.4239L158.834 34.3658L158.786 34.3319C158.337 34.5876 157.919 34.7214 157.531 34.7333C157.143 34.7451 156.76 34.6605 156.381 34.4794C156.005 34.3001 155.554 34.0228 155.026 33.6475C154.299 33.1308 153.77 32.6249 153.438 32.13C153.107 31.635 152.971 31.113 153.03 30.5638C153.089 30.0145 153.35 29.4136 153.814 28.7609C154.199 28.2196 154.575 27.814 154.943 27.5441C155.313 27.2761 155.697 27.1318 156.095 27.1112C156.498 27.0898 156.936 27.1838 157.41 27.3931C157.887 27.5998 158.446 27.9313 159.088 28.3877C159.839 28.9214 160.319 29.3865 160.528 29.7829C160.742 30.1786 160.802 30.6447 160.708 31.1811L160.804 31.249L161.834 29.8003C162.164 29.336 162.36 28.9386 162.424 28.6081C162.487 28.2776 162.42 27.9726 162.223 27.693C162.029 27.4108 161.688 27.0971 161.203 26.752C160.587 26.3145 160.102 26.1012 159.747 26.1123C159.394 26.1252 159.041 26.3797 158.689 26.8759L156.635 25.4162C157.021 24.9075 157.426 24.5448 157.852 24.3281C158.282 24.1106 158.721 24.0213 159.168 24.06C159.618 24.096 160.073 24.2257 160.533 24.449C160.996 24.6697 161.505 24.9781 162.062 25.3741C162.962 26.0134 163.641 26.5978 164.099 27.1273C164.562 27.656 164.794 28.2564 164.796 28.9284C164.802 29.5997 164.494 30.3731 163.871 31.2487L159.874 36.8723L157.837 35.4239ZM159.655 32.8648C160.01 32.366 160.111 31.9265 159.958 31.5461C159.807 31.1677 159.344 30.7022 158.566 30.1496C158.112 29.8271 157.729 29.6165 157.416 29.5177C157.107 29.4181 156.834 29.4235 156.596 29.5338C156.359 29.6414 156.124 29.8597 155.891 30.1887C155.555 30.661 155.446 31.0845 155.563 31.4593C155.682 31.8359 156.062 32.2514 156.701 32.7059C157.436 33.2283 158.022 33.511 158.459 33.5539C158.9 33.596 159.299 33.3663 159.655 32.8648Z" fill="#154889"/>
<path d="M163.493 40.0195L169.263 33.7233L166.783 31.4503L168.092 30.0212L174.892 36.2528L173.583 37.6819L171.106 35.4123L165.336 41.7085L163.493 40.0195Z" fill="#154889"/>
<path d="M173.537 50.4609L174.764 49.6794L174.726 49.6348C174.228 49.7726 173.789 49.7998 173.41 49.7164C173.031 49.6329 172.68 49.457 172.358 49.1887C172.037 48.9228 171.667 48.5433 171.247 48.0501C170.669 47.3711 170.28 46.7511 170.08 46.1901C169.88 45.6291 169.876 45.0896 170.068 44.5716C170.259 44.0535 170.66 43.5349 171.269 43.0157C171.775 42.5851 172.239 42.284 172.662 42.1124C173.086 41.9432 173.494 41.8973 173.885 41.9749C174.28 42.0527 174.682 42.2512 175.091 42.5703C175.502 42.8873 175.963 43.3456 176.474 43.9454C177.071 44.6467 177.423 45.2152 177.529 45.6509C177.639 46.087 177.583 46.5536 177.361 47.0507L177.437 47.1399L178.79 45.9876C179.224 45.6182 179.512 45.2811 179.654 44.9761C179.796 44.6711 179.806 44.3591 179.684 44.0398C179.564 43.7185 179.311 43.3311 178.925 42.8775C178.435 42.3026 178.017 41.9769 177.67 41.9006C177.325 41.8268 176.92 41.9872 176.457 42.3819L174.823 40.4637C175.322 40.0649 175.804 39.8126 176.27 39.7067C176.74 39.6012 177.187 39.6221 177.612 39.7693C178.039 39.9143 178.448 40.1515 178.84 40.4808C179.234 40.8079 179.653 41.2317 180.096 41.7521C180.811 42.5923 181.326 43.3252 181.641 43.9508C181.96 44.5767 182.039 45.2157 181.875 45.8677C181.717 46.52 181.229 47.1944 180.411 47.8909L175.158 52.3642L173.537 50.4609ZM175.928 48.4252C176.394 48.0285 176.599 47.627 176.544 47.2207C176.491 46.817 176.155 46.2521 175.537 45.5259C175.176 45.1021 174.855 44.804 174.576 44.6315C174.301 44.4594 174.035 44.3976 173.777 44.4462C173.521 44.4927 173.24 44.6468 172.933 44.9085C172.492 45.2842 172.282 45.6681 172.304 46.06C172.327 46.4545 172.594 46.9504 173.102 47.5476C173.687 48.2341 174.186 48.6517 174.599 48.8002C175.016 48.9491 175.459 48.8241 175.928 48.4252Z" fill="#154889"/>
<path d="M185.524 48.7744L190.27 56.1139L181.471 61.8037L180.113 59.7043L187.285 55.0671L185.23 51.8894L180.761 54.7794C180.206 55.1382 179.663 55.369 179.133 55.4717C178.606 55.5754 178.11 55.5264 177.642 55.3249C177.176 55.126 176.775 54.7655 176.437 54.2434C176.057 53.6557 175.807 53.2066 175.688 52.8962L177.266 51.8754C177.363 52.0962 177.462 52.2858 177.565 52.4444C177.823 52.8435 178.107 53.047 178.419 53.055C178.733 53.0612 179.132 52.9078 179.616 52.595L185.524 48.7744Z" fill="#154889"/>
<path d="M187.468 61.6645C188.719 61.0798 189.754 60.7575 190.574 60.6974C191.395 60.6404 192.107 60.8608 192.71 61.3586C193.315 61.8594 193.89 62.6937 194.436 63.8614C194.98 65.0261 195.253 66.0039 195.252 66.7946C195.252 67.5853 194.966 68.2798 194.394 68.8778C193.826 69.4775 192.919 70.069 191.671 70.6522C190.748 71.0838 189.941 71.3699 189.248 71.5104C188.556 71.651 187.938 71.6399 187.394 71.4771C186.854 71.3129 186.362 70.984 185.92 70.4903C185.478 69.9996 185.05 69.3178 184.634 68.4448C184.23 67.5808 183.982 66.8185 183.888 66.1578C183.795 65.4971 183.86 64.9097 184.083 64.3957C184.309 63.8803 184.696 63.4048 185.243 62.9691C185.792 62.5365 186.534 62.1016 187.468 61.6645ZM188.552 63.9822C187.671 64.3945 187.035 64.7724 186.646 65.1161C186.26 65.4584 186.056 65.8178 186.034 66.1944C186.013 66.5711 186.132 67.0475 186.39 67.6236C186.658 68.1957 186.944 68.5971 187.25 68.828C187.558 69.0574 187.97 69.1345 188.484 69.0592C189 68.9868 189.701 68.7438 190.585 68.3301C191.252 68.0185 191.766 67.7312 192.128 67.4684C192.492 67.2086 192.746 66.9443 192.89 66.6758C193.034 66.4073 193.083 66.118 193.039 65.8081C192.999 65.4998 192.879 65.1246 192.68 64.6825C192.414 64.1134 192.13 63.7142 191.829 63.4849C191.529 63.2586 191.124 63.1839 190.614 63.2608C190.106 63.3363 189.419 63.5768 188.552 63.9822Z" fill="#154889"/>
<path d="M197.934 78.7633L196.533 74.5521L188.411 77.2557L187.621 74.8836L197.564 71.574L199.755 78.1572L197.934 78.7633Z" fill="#154889"/>
<path d="M198.131 85.5831L199.671 95.2611L198.345 95.4722L196.805 85.7942L198.131 85.5831Z" fill="#154889"/>
</svg>
